<?xml version="1.0" encoding="utf-8"?>
<!-- Generator: Adobe Illustrator 25.2.0, SVG Export Plug-In . SVG Version: 6.00 Build 0)  -->
<svg version="1.1" id="Capa_1" xmlns="http://www.w3.org/2000/svg" xmlns:xlink="http://www.w3.org/1999/xlink" x="0px" y="0px"
	 width="735.9px" height="732.2px" viewBox="0 0 735.9 732.2" style="enable-background:new 0 0 735.9 732.2;" xml:space="preserve"
	>
<style type="text/css">
	.st0{fill:#FFFFFF;}
	.st1{fill:#1195FF;}
	.st2{fill:#ACDAFF;}
	.st3{fill:#88CAFF;}
	.st4{fill:#D6EDFF;}
	.st5{fill:#FF8700;}
	.st6{fill:#333232;}
	.st7{clip-path:url(#SVGID_2_);fill:#88CAFF;}
	.st8{clip-path:url(#SVGID_4_);fill:#999898;}
	.st9{clip-path:url(#SVGID_6_);fill:#88CAFF;}
	.st10{clip-path:url(#SVGID_8_);fill:#999898;}
	.st11{clip-path:url(#SVGID_10_);fill:#88CAFF;}
	.st12{clip-path:url(#SVGID_12_);fill:#88CAFF;}
	.st13{clip-path:url(#SVGID_14_);fill:#88CAFF;}
	.st14{clip-path:url(#SVGID_16_);fill:#88CAFF;}
	.st15{fill:#FFF4BF;}
	.st16{fill:#FFEBD4;}
	.st17{fill:#FC511F;}
	.st18{fill:#F46800;}
	.st19{fill:none;}
	.st20{fill:#1C2A7D;}
	.st21{fill:#F3D02F;}
	.st22{fill:#BC0030;}
	.st23{fill:#EEF7FF;}
</style>
<g>
	<path class="st0" d="M635.4,193.6c-0.1,0-0.2,0-0.3,0.1c-0.4,0.1-0.6,0.6-0.5,1c0.9,2.6,1.7,5.1,2.5,7.5c0.1,0.3,0.4,0.6,0.8,0.6
		l0.2,0c0.4-0.1,0.7-0.6,0.5-1c-0.7-2.4-1.6-5-2.5-7.6l0,0C636,193.8,635.7,193.6,635.4,193.6 M101.8,181.7c-0.3,0-0.6,0.2-0.7,0.4
		c-2.2,4.6-3.3,7.3-3.3,7.3c-0.2,0.4,0,0.9,0.4,1c0.1,0,0.2,0.1,0.3,0.1h0c0.3,0,0.6-0.2,0.7-0.5c0,0,1.1-2.7,3.3-7.2
		c0.2-0.4,0-0.9-0.4-1.1C102,181.7,101.9,181.7,101.8,181.7 M629.6,178.9c-0.1,0-0.2,0-0.3,0.1c-0.4,0.2-0.6,0.6-0.4,1
		c1,2.4,2,4.9,3,7.3c0.1,0.3,0.4,0.5,0.7,0.5l0,0l0,0c0.1,0,0.2,0,0.3-0.1c0.4-0.2,0.6-0.6,0.4-1c-1-2.4-2-4.9-3-7.3
		C630.2,179.1,629.9,178.9,629.6,178.9 M626.4,173.3L626.4,173.3L626.4,173.3 M109.2,167.7c-0.3,0-0.5,0.1-0.7,0.4
		c-1.3,2.4-2.6,4.7-3.8,7c-0.1,0.1-0.1,0.2-0.1,0.4c0,0.4,0.3,0.8,0.8,0.8l0,0l0,0c0.3,0,0.6-0.2,0.7-0.4c1.2-2.2,2.5-4.6,3.8-6.9
		c0.2-0.4,0.1-0.9-0.3-1.1C109.4,167.7,109.3,167.7,109.2,167.7 M622.9,164.6c-0.1,0-0.3,0-0.4,0.1c-0.4,0.2-0.5,0.7-0.3,1.1
		c1.2,2.3,2.3,4.7,3.5,7.1c0.1,0.3,0.4,0.4,0.7,0.5c0.1,0,0.2,0,0.3-0.1c0.4-0.2,0.6-0.7,0.4-1.1c-1.1-2.4-2.3-4.8-3.5-7.1l0,0
		C623.5,164.7,623.2,164.6,622.9,164.6 M117.4,154.1c-0.3,0-0.5,0.1-0.7,0.4c-1.5,2.3-2.9,4.6-4.2,6.7l0,0c-0.2,0.4-0.1,0.9,0.3,1.1
		c0.1,0.1,0.3,0.1,0.4,0.1l0,0l0,0c0.3,0,0.5-0.1,0.7-0.4c1.3-2.2,2.7-4.4,4.2-6.7l0,0c0.2-0.4,0.1-0.9-0.3-1.1
		C117.7,154.2,117.5,154.1,117.4,154.1 M615.3,150.7c-0.1,0-0.3,0-0.4,0.1c-0.4,0.2-0.5,0.7-0.3,1.1c1.3,2.2,2.6,4.6,3.9,6.9
		c0.1,0.2,0.4,0.4,0.7,0.4l0,0c0.1,0,0.3,0,0.4-0.1l0,0c0.4-0.2,0.5-0.7,0.3-1.1c-1.3-2.3-2.6-4.6-3.9-6.9l0,0
		C615.9,150.8,615.6,150.7,615.3,150.7 M126.2,141.1c-0.2,0-0.5,0.1-0.6,0.3c-1.6,2.2-3.1,4.4-4.5,6.5l0,0c-0.2,0.4-0.2,0.9,0.2,1.1
		c0.1,0.1,0.3,0.1,0.4,0.1l0,0l0,0l0,0c0.3,0,0.5-0.1,0.7-0.4c1.4-2.1,2.9-4.3,4.5-6.5c0.2-0.4,0.2-0.8-0.2-1.1
		C126.6,141.1,126.4,141.1,126.2,141.1 M606.9,137.3c-0.2,0-0.3,0.1-0.5,0.2c-0.4,0.2-0.4,0.8-0.2,1.1c1.5,2.2,2.9,4.4,4.3,6.6
		c0.1,0.2,0.4,0.4,0.7,0.4l0,0h0c0.2,0,0.3,0,0.4-0.1c0.4-0.2,0.5-0.7,0.2-1.1c-1.4-2.2-2.8-4.5-4.3-6.6l0,0
		C607.4,137.4,607.2,137.3,606.9,137.3 M135.7,128.4c-0.2,0-0.5,0.1-0.6,0.3c-1.7,2.1-3.3,4.2-4.8,6.3c-0.3,0.3-0.2,0.8,0.2,1.1
		c0.1,0.1,0.3,0.2,0.5,0.2l0,0l0,0l0,0c0.2,0,0.5-0.1,0.6-0.3c1.5-2.1,3.1-4.1,4.8-6.2c0.3-0.3,0.2-0.8-0.1-1.1
		C136.1,128.5,135.9,128.4,135.7,128.4 M597.8,124.5c-0.2,0-0.3,0.1-0.5,0.2c-0.3,0.3-0.4,0.8-0.2,1.1c1.6,2.1,3.2,4.2,4.7,6.3
		c0.2,0.2,0.4,0.3,0.6,0.3l0,0l0,0c0.2,0,0.3-0.1,0.5-0.1c0.3-0.2,0.4-0.8,0.2-1.1c-1.5-2.1-3.1-4.3-4.7-6.4
		C598.3,124.6,598,124.5,597.8,124.5 M145.8,116.3c-0.2,0-0.4,0.1-0.6,0.2c-1.8,2-3.5,4-5.1,6c-0.1,0.1-0.2,0.3-0.2,0.5
		c0,0.4,0.4,0.8,0.8,0.8l0,0l0,0h0c0.2,0,0.4-0.1,0.6-0.3c1.6-2,3.4-4,5.1-6c0.3-0.3,0.2-0.8-0.1-1.1
		C146.2,116.4,146,116.3,145.8,116.3 M587.8,112.2c-0.2,0-0.4,0.1-0.5,0.2c-0.3,0.3-0.4,0.8-0.1,1.1c1.7,2,3.4,4,5,6
		c0.2,0.2,0.4,0.3,0.6,0.3l0,0c0.2,0,0.4-0.1,0.5-0.2c0.3-0.3,0.4-0.8,0.1-1.1c-1.7-2-3.4-4.1-5.1-6.1
		C588.3,112.3,588.1,112.2,587.8,112.2 M156.5,104.7c-0.2,0-0.4,0.1-0.6,0.2c-1.9,1.9-3.7,3.8-5.4,5.8c-0.1,0.2-0.2,0.3-0.2,0.5
		c0,0.4,0.4,0.8,0.8,0.8l0,0l0,0c0.2,0,0.4-0.1,0.6-0.2c1.8-1.9,3.6-3.8,5.4-5.7c0.3-0.3,0.3-0.8,0-1.1
		C156.9,104.8,156.7,104.7,156.5,104.7 M577.2,100.6c-0.2,0-0.4,0.1-0.5,0.2c-0.3,0.3-0.3,0.8,0,1.1c1.8,1.8,3.6,3.8,5.4,5.7
		c0.2,0.2,0.4,0.3,0.6,0.3c0.2,0,0.4-0.1,0.5-0.2c0.3-0.3,0.3-0.8,0-1.1c-1.8-1.9-3.6-3.9-5.5-5.8
		C577.6,100.7,577.4,100.6,577.2,100.6 M167.8,93.6c-0.2,0-0.4,0.1-0.5,0.2c-2,1.8-3.9,3.6-5.7,5.5l0,0c-0.3,0.3-0.3,0.8,0,1.1
		c0.1,0.2,0.4,0.2,0.6,0.2h0l0,0c0.2,0,0.4-0.1,0.6-0.2c1.9-1.8,3.8-3.6,5.7-5.4c0.3-0.3,0.3-0.8,0-1.1
		C168.2,93.7,168,93.6,167.8,93.6 M565.8,89.6c-0.2,0-0.4,0.1-0.6,0.3c-0.3,0.3-0.3,0.8,0.1,1.1c1.9,1.7,3.9,3.5,5.8,5.4
		c0.2,0.1,0.3,0.2,0.5,0.2l0,0l0,0l0,0c0.2,0,0.4-0.1,0.6-0.2c0.3-0.3,0.3-0.8,0-1.1c-1.9-1.8-3.8-3.7-5.8-5.4
		C566.1,89.7,566,89.6,565.8,89.6 M179.6,83.2c-0.2,0-0.3,0.1-0.5,0.2c-2,1.7-4,3.4-6,5.2c-0.2,0.2-0.3,0.4-0.3,0.6
		c0,0.4,0.4,0.8,0.8,0.8l0,0c0.2,0,0.4-0.1,0.5-0.2c2-1.7,4-3.5,6-5.1c0.3-0.3,0.4-0.7,0.1-1.1C180.1,83.3,179.9,83.2,179.6,83.2
		 M553.7,79.4c-0.2,0-0.5,0.1-0.6,0.3c-0.3,0.3-0.2,0.8,0.1,1.1c2,1.6,4.1,3.3,6.1,5c0.1,0.1,0.3,0.2,0.5,0.2c0.2,0,0.5-0.1,0.6-0.3
		c0.3-0.3,0.2-0.8-0.1-1.1c-2-1.7-4.1-3.4-6.1-5C554.1,79.5,553.9,79.4,553.7,79.4 M192.1,73.4c-0.2,0-0.3,0.1-0.5,0.2
		c-2.1,1.6-4.2,3.2-6.3,4.8c-0.2,0.2-0.3,0.4-0.3,0.6c0,0.4,0.4,0.8,0.8,0.8l0,0c0.2,0,0.4-0.1,0.5-0.2c2.1-1.6,4.2-3.2,6.2-4.8
		c0.4-0.3,0.4-0.8,0.2-1.1C192.5,73.5,192.3,73.4,192.1,73.4 M541.1,70c-0.2,0-0.5,0.1-0.7,0.3c-0.2,0.4-0.2,0.9,0.2,1.1
		c2.1,1.5,4.3,3,6.4,4.6c0.1,0.1,0.3,0.2,0.5,0.2l0,0l0,0c0.2,0,0.5-0.1,0.6-0.3c0.3-0.3,0.2-0.8-0.2-1.1c-2.1-1.6-4.3-3.1-6.4-4.6
		C541.4,70,541.2,70,541.1,70 M205,64.4c-0.1,0-0.3,0-0.4,0.1c-2.2,1.4-4.4,2.9-6.5,4.4c-0.2,0.2-0.3,0.4-0.3,0.7
		c0,0.4,0.4,0.8,0.8,0.8l0,0l0,0l0,0c0.2,0,0.3-0.1,0.4-0.1c2.2-1.5,4.4-3,6.5-4.4c0.4-0.2,0.5-0.7,0.2-1.1
		C205.5,64.5,205.2,64.4,205,64.4 M527.9,61.4c-0.3,0-0.5,0.1-0.7,0.4c-0.2,0.4-0.1,0.9,0.3,1.1c2.2,1.4,4.5,2.8,6.7,4.2
		c0.1,0.1,0.3,0.1,0.4,0.1h0c0.3,0,0.5-0.1,0.7-0.4c0.2-0.4,0.1-0.8-0.2-1.1c-2.2-1.4-4.4-2.8-6.7-4.2
		C528.1,61.4,528,61.4,527.9,61.4 M218.4,56c-0.1,0-0.3,0-0.4,0.1c-2.3,1.3-4.6,2.7-6.8,4.1c-0.2,0.1-0.4,0.4-0.4,0.7
		c0,0.4,0.4,0.8,0.8,0.8l0,0l0,0l0,0c0.1,0,0.3,0,0.4-0.1c2.2-1.4,4.5-2.7,6.8-4c0.4-0.2,0.5-0.7,0.3-1.1
		C218.9,56.2,218.7,56,218.4,56 M225.3,53.8L225.3,53.8L225.3,53.8L225.3,53.8 M514.1,53.6c-0.3,0-0.6,0.2-0.7,0.4
		c-0.2,0.4-0.1,0.9,0.3,1.1c2.3,1.2,4.7,2.5,6.9,3.8c0.1,0.1,0.2,0.1,0.4,0.1l0,0v0c0.3,0,0.5-0.2,0.7-0.4c0.2-0.4,0.1-0.9-0.3-1.1
		c-2.3-1.3-4.6-2.6-6.9-3.8C514.4,53.6,514.3,53.6,514.1,53.6 M507,49.9c-0.1,0.5-0.3,1-0.4,1.5l0.2,0.1c0.1,0,0.2,0.1,0.4,0.1l0,0
		c0.3,0,0.6-0.2,0.7-0.4c0.2-0.4,0-0.9-0.4-1.1C507.3,50,507.2,49.9,507,49.9 M232.3,48.5c-0.1,0-0.2,0-0.4,0.1
		c-2.3,1.2-4.7,2.4-7,3.7c-0.2,0.1-0.4,0.4-0.4,0.7c0,0.4,0.4,0.8,0.8,0.8c0.1,0,0.3,0,0.4-0.1c2.3-1.3,4.7-2.5,7-3.7l0,0
		c0.4-0.2,0.5-0.7,0.3-1.1C232.8,48.7,232.6,48.5,232.3,48.5 M246.5,41.8c-0.1,0-0.2,0-0.3,0.1c-2.4,1-4.9,2.2-7.2,3.2
		c-0.3,0.1-0.4,0.4-0.4,0.7c0,0.4,0.4,0.8,0.8,0.8l0,0h0c0.1,0,0.2,0,0.3-0.1c2.4-1.1,4.8-2.2,7.2-3.2c0.4-0.2,0.6-0.6,0.4-1
		C247.1,42,246.8,41.8,246.5,41.8 M261.2,36c-0.1,0-0.2,0-0.3,0.1c-2.4,0.9-4.9,1.8-7.4,2.8c-0.3,0.1-0.5,0.4-0.5,0.7
		c0,0.4,0.3,0.8,0.8,0.8c0.1,0,0.2,0,0.3,0c2.4-1,4.9-1.9,7.3-2.8l0.1,0c0.4-0.2,0.6-0.6,0.4-1C261.8,36.2,261.5,36,261.2,36
		 M276.2,31l-0.2,0c-2.5,0.8-5.1,1.6-7.5,2.4c-0.3,0.1-0.5,0.4-0.5,0.8c0,0.4,0.4,0.8,0.8,0.8l0,0l0.2,0c2.5-0.8,5-1.6,7.5-2.4
		c0.4-0.1,0.6-0.5,0.5-1C276.8,31.3,276.5,31,276.2,31 M440.1,27c-0.4,0-0.7,0.3-0.8,0.6c-0.1,0.4,0.2,0.8,0.6,0.9
		c2.6,0.6,5.1,1.1,7.7,1.8l0.2,0l0,0l0,0c0.4,0,0.7-0.2,0.8-0.6c0.1-0.4-0.2-0.9-0.6-0.9c-2.5-0.6-5.1-1.2-7.7-1.8l0,0H440.1
		 M291.4,26.9l-0.2,0c-2.5,0.6-5.1,1.2-7.7,1.9c-0.3,0.1-0.6,0.4-0.6,0.8c0,0.4,0.3,0.8,0.8,0.8l0,0l0.2,0c2.5-0.7,5.1-1.3,7.6-1.9
		c0.4-0.1,0.6-0.5,0.6-0.9C292.1,27.2,291.8,26.9,291.4,26.9 M424.6,24.1c-0.4,0-0.7,0.3-0.8,0.7c-0.1,0.4,0.2,0.8,0.6,0.9
		c2.6,0.4,5.2,0.9,7.8,1.4l0.1,0l0,0c0.4,0,0.7-0.3,0.8-0.6c0.1-0.4-0.2-0.8-0.6-0.9c-2.6-0.5-5.2-0.9-7.8-1.4L424.6,24.1
		 M306.8,23.7l-0.1,0c-2.6,0.5-5.2,1-7.8,1.5c-0.4,0.1-0.6,0.4-0.6,0.8c0,0.4,0.4,0.8,0.8,0.8l0,0l0.2,0c2.5-0.5,5.1-1,7.7-1.5
		c0.4-0.1,0.7-0.5,0.6-0.9C307.6,24,307.2,23.7,306.8,23.7 M409,21.8c-0.4,0-0.8,0.3-0.8,0.7c0,0.4,0.3,0.8,0.7,0.9
		c2.6,0.3,5.2,0.7,7.8,1l0.1,0l0,0h0c0.4,0,0.7-0.3,0.8-0.7c0.1-0.4-0.2-0.8-0.7-0.9C414.4,22.5,411.7,22.2,409,21.8L409,21.8
		L409,21.8 M322.5,21.3l-0.1,0c-2.6,0.3-5.3,0.7-7.8,1.1c-0.4,0.1-0.7,0.4-0.7,0.8c0,0.4,0.4,0.8,0.8,0.8l0,0l0.1,0
		c2.6-0.4,5.2-0.8,7.8-1.1c0.4-0.1,0.7-0.4,0.7-0.9v0C323.2,21.6,322.8,21.3,322.5,21.3 M393.3,20.3c-0.4,0-0.8,0.3-0.8,0.7
		c0,0.4,0.3,0.8,0.7,0.9c2.6,0.2,5.2,0.4,7.8,0.7h0.1l0,0c0.4,0,0.7-0.3,0.8-0.7c0-0.4-0.3-0.8-0.7-0.9
		C398.7,20.7,396,20.5,393.3,20.3L393.3,20.3L393.3,20.3 M338.2,19.8L338.2,19.8c-2.7,0.2-5.4,0.4-8,0.7c-0.4,0-0.7,0.4-0.7,0.8
		c0,0.4,0.3,0.8,0.8,0.8l0,0h0.1c2.6-0.2,5.2-0.5,7.8-0.7c0.4,0,0.8-0.4,0.7-0.9v0C338.9,20.1,338.6,19.8,338.2,19.8 M377.6,19.3
		c-0.4,0-0.8,0.3-0.8,0.8l0,0c0,0.4,0.3,0.8,0.8,0.8c2.6,0.1,5.3,0.2,7.9,0.4h0l0,0l0,0c0.4,0,0.8-0.3,0.8-0.8
		c0-0.4-0.3-0.8-0.8-0.8C382.9,19.6,380.3,19.4,377.6,19.3 M353.9,19.1c-2.7,0.1-5.3,0.1-7.9,0.3c-0.4,0-0.8,0.4-0.8,0.8
		c0,0.4,0.4,0.8,0.8,0.8h0c2.6-0.1,5.2-0.2,7.9-0.3c0.4,0,0.8-0.4,0.8-0.8C354.7,19.4,354.3,19.1,353.9,19.1 M361.8,19
		c-0.4,0-0.8,0.3-0.8,0.8s0.4,0.8,0.8,0.8c2.6,0,5.3,0,7.9,0.1h0h0c0.4,0,0.8-0.3,0.8-0.8c0-0.4-0.4-0.8-0.8-0.8
		C367.1,19,364.5,19,361.8,19"/>
	<path class="st0" d="M496.5,714.8v0.1c0,1.5-0.3,2.9-0.8,4.2c-0.1,3.5-3,6.3-6.5,6.5c-1.3,0.5-2.7,0.8-4.2,0.8H183.5
		c-1.5,0-2.9-0.3-4.2-0.8c-3.5-0.2-6.3-3-6.5-6.5c-0.2-0.5-0.4-1.1-0.5-1.6c-80.9,2.9-132.8,7.4-132.8,12.5c0,8.8,156.9,16,350.4,16
		s350.4-7.1,350.4-16C740.3,722.8,637.9,716.8,496.5,714.8"/>
	<path class="st1" d="M535.6,360.8c-4.1-21.6-9.4-42.9-15.8-63.9c-19-60.8-57-122.4-121.9-143.1c-47.9-15.4-99.6-4.9-140.1,26.1
		c-63.4,48.6-109.5,115-178.9,157.1c-58,35.1-88.2,92-68.5,172.6C30,590,95.3,637,166.5,631.4c59.3-4.7,121.2,0.6,172.5,29.5
		c45.8,25.9,126.7,3.7,193.5-66.7c38.9-41,35-93.1,22.2-142C546.9,422.1,541.7,391.3,535.6,360.8"/>
	<path class="st2" d="M36.5,372.4C16,396.6,4.4,426.6,4.4,462.5c0,14.6,1.9,30.3,6,46.9c18.6,76.2,78,122.4,144.7,122.4
		c3.8,0,7.6-0.2,11.5-0.5c1.8-0.2,3.7-0.3,5.5-0.4V401.2c-1.3,17.9-2.5,37.4-2.9,46.6l0,0.2c-0.1,3.4-0.3,8-4.3,8.3
		c-0.9,0-3.4,0.5-6.4,1c-6,1.1-14.1,2.5-18.2,2.5c-0.2,0-0.5,0-0.7,0c-16.4-0.8-32.7-1.9-36.4-4.9c-3.5-2.9-2.9-5.7-2.7-6.3
		l3.7-29.7l-57.5-38.1L36.5,372.4 M53.2,370.9l0.4,2.5l0,0l3.4,2.3l18.7,6.9l-16.8-8.8L53.2,370.9 M113.4,312.8
		c-10.9,8.6-22.3,16.7-34.5,24.1c-7.7,4.7-14.9,9.7-21.6,15.2l0.1,0.2l0,0l4.5,11.9l41.8,13.6c-0.6-7.6-1-14.7-0.2-19.3l0.6-3.3
		c1.9-11.2,4.1-23.9,9-32.7c0.8-1.4,1.8-3,2.9-4.6C115.2,316.5,114.3,314.7,113.4,312.8 M172,259.3c-12.4,12.3-24.9,24.5-38,36.1
		c0.5,0.7,0.9,1.4,1.4,2c7.8,1.4,15.6,6.4,22.1,14.4c6.7,8.1,11.6,18.4,14.5,29.5V259.3 M524.1,495.7L524.1,495.7
		c0.6,0,1.3,0.1,1.9,0.3c4.5,1.7,6.5,10.2,6.3,14.5c0,0.4-1.1,6.1-1.1,6.1l0,0l0,0c0,0-7.5-3.9-9.8-6.9c-2-2.6-3.7-6.4-2.9-9.6
		c0-0.2,0.1-0.4,0.2-0.6C519.6,497.1,521.8,495.7,524.1,495.7 M496.5,241.4v385.4c5.4-4.1,10.9-8.6,16.2-13.3c0.3-1.1,0.7-2.2,1-3.2
		c-0.9-0.3-7.9-3.1-10.4-5.7c-2-2.1-4-5.2-4-8.2c0-0.3,0-0.7,0.1-1c0-0.2,0.1-0.4,0.1-0.6c0.6-2.6,3-4.4,5.5-4.4
		c0.4,0,0.9,0,1.3,0.1c4.6,1.2,7.6,9.4,7.9,13.7v0.1c0,0.5-0.2,3.6-0.3,5.2c0.4-1.3,0.8-2.6,1.2-4c0.6-2,1.2-4.1,1.7-6.1
		c0.2-1.1,0.5-2.2,0.8-3.2c0.3-1.1,0.4-2.2,0.7-3.3c0.3-1.6,0.5-3.3,0.7-5c-2-0.5-8-2-10.5-3.9c-2.6-1.9-5.3-5.1-5.3-8.5v-0.2
		c0-0.1,0-0.3,0-0.4c0.2-3,2.7-5.3,5.7-5.3c0.1,0,0.3,0,0.4,0c4.8,0.5,9,8.1,9.9,12.3c0,0.1,0.1,1,0.2,2.1c0.2-1.7,0.3-3.3,0.4-5
		c0.3-4.8,0.5-9.6,0.7-14.5c0-1,0.1-2,0.1-3c-1.7-0.4-8.3-2-10.8-4c-2.6-1.9-5.3-5.1-5.3-8.5v-0.2c0-0.2,0-0.3,0-0.4l0,0
		c0.2-3,2.7-5.2,5.7-5.2c0.1,0,0.3,0,0.4,0c4.8,0.5,9,8.1,9.9,12.3c0,0.2,0.1,1.2,0.3,2.4c0.1-2.7,0.3-5.3,0.5-7.9
		c0.4-4.5,1.1-8.9,2.1-13.3c-0.6-0.1-8.3-1.9-11.2-4c-2.6-1.9-5.3-5.1-5.3-8.5v-0.2c0-0.1,0-0.3,0-0.4c0.2-3,2.7-5.3,5.7-5.3
		c0.1,0,0.3,0,0.4,0c4.8,0.5,9,8.1,9.9,12.3c0.1,0.3,0.4,4.2,0.5,5.6v-0.1c1.1-4.3,2.5-8.5,4.3-12.5c1.6-3.6,3.4-7.1,5.5-10.5
		c1.8-3.2,3.7-5.9,5.4-8.4c0.9-1.3,1.8-2.5,2.6-3.6h-0.1v0c0-0.4,1.2-5.7,1.3-6c1.4-4,6.5-10.9,11.2-10.9h0.1c0.2,0,0.4,0,0.6,0.1
		c2.8,0.5,4.8,2.9,4.8,5.6c0,0.3,0,0.6-0.1,0.9c-0.4,3.4-3.5,6.1-6.3,7.8c-2.9,1.6-9.6,2.4-11.3,2.6c-0.8,1.2-1.7,2.4-2.6,3.8
		c-1.6,2.5-3.4,5.3-5.2,8.5c-0.5,0.9-1,1.8-1.4,2.7c1.1-1.3,2.7-3.2,2.8-3.3c2.5-2.3,7.8-5.2,12-5.2c1.2,0,2.2,0.2,3.1,0.7
		c0.2,0.1,0.3,0.2,0.5,0.3c1.5,1.1,2.3,2.8,2.3,4.6c0,1.2-0.4,2.4-1.1,3.4c-1.9,2.8-5.8,3.8-9.2,4c-0.1,0-0.2,0-0.4,0
		c-3.5,0-9.5-2.4-10.9-3c-1,2-2,4.1-2.9,6.3c-1.7,4-3.1,8.2-4.1,12.5l0.2,0.1c0.9-1.4,2.8-4.2,3-4.4c2.3-2.8,7.9-6.5,12.3-6.5
		c0.8,0,1.6,0.1,2.3,0.4c0.2,0.1,0.4,0.2,0.6,0.3l0,0c1.8,1.1,2.8,2.9,2.8,4.9c0,1-0.2,2-0.8,2.9c-1.6,3-5.5,4.5-8.7,5
		c-0.4,0.1-0.8,0.1-1.3,0.1c-4,0-10.2-1.8-10.5-1.9c-0.8,4.3-1.4,8.6-1.7,12.9c-0.2,3.2-0.4,6.5-0.4,9.7c0.6-1,3.1-4.7,3.3-4.9
		c2.3-2.8,7.9-6.5,12.3-6.5c0.8,0,1.6,0.1,2.3,0.4c0.2,0.1,0.3,0.2,0.5,0.3c1.8,1.1,2.8,3,2.8,4.9c0,1-0.2,2-0.8,2.9
		c-1.6,3-5.5,4.5-8.7,5c-0.4,0.1-0.8,0.1-1.3,0.1c-3.8,0-9.8-1.7-10.4-1.8l-0.1,4.5c-0.1,4.9-0.1,9.7-0.3,14.5
		c-0.1,1.7-0.2,3.4-0.3,4.9c0.9-1.4,2.7-4,2.8-4.2c2.4-2.8,7.9-6.5,12.3-6.5c0.8,0,1.6,0.1,2.3,0.4c0.2,0.1,0.3,0.2,0.5,0.3
		c1.8,1.1,2.8,3,2.8,4.9c0,1-0.2,2-0.8,2.9c-1.6,3-5.5,4.5-8.7,5c-0.4,0.1-0.8,0.1-1.3,0.1c-3.4,0-8.4-1.3-10-1.8
		c-0.2,2.7-0.5,5.4-0.9,8.1c-0.2,1.1-0.3,2.3-0.6,3.4c-0.2,1.1-0.5,2.2-0.7,3.2c-0.5,2.2-1,4.3-1.6,6.3c-0.3,1-0.6,2-0.8,3
		c0.7-1.6,1.9-4.1,2-4.3c2-3.2,7.2-8,11.7-8.4c0.7-0.7,1.3-1.4,2-2.1c2.3-2.4,4.5-4.9,6.5-7.4c0.2-0.3,0.3-0.6,0.5-0.9
		c0.1-0.2,0.2-0.3,0.3-0.5l0,0c0.3-0.4,0.7-0.8,1.1-1.1c16.7-22,22.7-46.6,22.7-71.9c0-19.9-3.7-40.3-8.9-60.1
		c-7.9-30.2-13.1-61-19.2-91.5c-4.1-21.6-9.4-42.9-15.8-63.9C513.9,278,506.2,259.2,496.5,241.4"/>
	<path class="st1" d="M595.5,552.5c0,0.1,4-4.2,4.3-4.5c2.6-3.4,5.5-11.6,2.7-15.5c-1.9-2.5-5.5-3-8-1.1c-0.2,0.1-0.3,0.2-0.5,0.4
		c-2.6,2.2-3.2,6.3-2.9,9.6C591.4,545.1,595.4,552.5,595.5,552.5L595.5,552.5"/>
	<path class="st1" d="M632.3,537.8c-4-2.8-12.1,0.2-15.5,2.9c-0.3,0.2-4.5,4.3-4.5,4.3h0.1c-1.3,0.5-2.7,1-4.2,1.6
		c-2.8,1.1-5.9,2.4-9.1,4c-3.6,1.7-7,3.6-10.3,5.7c-3.7,2.3-7.2,5-10.5,8l-0.1,0.1c0.7-1.2,2.5-4.7,2.7-5c1.6-4,2.3-12.6-1.5-15.7
		c-2.5-1.9-6.1-1.4-8,1.1c-0.1,0.2-0.2,0.3-0.3,0.5c-1.9,2.8-1.4,7-0.3,10c1.2,3.4,6.7,9.1,7.1,9.5c-3.2,3.1-6.3,6.4-9.1,9.9
		c-1.6,2-3.2,4.1-4.7,6.3c0.6-1.1,1.1-2,1.1-2.2c1.6-4,2.3-12.6-1.5-15.8c-2.5-1.9-6.1-1.4-8,1.1c-0.1,0.2-0.2,0.3-0.3,0.5
		c-1.9,2.8-1.4,7-0.3,10c1.1,3,5.6,8,6.8,9.3c-0.6,0.8-1.2,1.6-1.8,2.5c-2.8,4-5.7,7.9-8.5,11.7c-1,1.3-2.1,2.6-3.2,3.9
		c0.5-1,0.9-1.8,1-1.9c1.6-4,2.3-12.6-1.5-15.8c-2.5-1.9-6.1-1.4-8,1.1l0,0c-0.1,0.2-0.2,0.3-0.3,0.5c-1.9,2.8-1.4,7-0.3,10
		c1.1,3,5.2,7.5,6.6,9c-1.1,1.3-2.2,2.6-3.3,3.8c-0.8,0.8-1.5,1.6-2.3,2.4l-2.5,2.3c-1.6,1.4-3.2,2.8-4.7,4.2
		c-1.1,0.9-2.2,1.8-3.2,2.7c1-1.3,3-4,3.2-4.2c1.8-3.3,2.7-7.1,2.6-10.9c0.2-0.4,0.4-0.7,0.5-1.1c1.2-2.9-0.3-6.2-3.2-7.4l0,0
		c-0.2-0.1-0.4-0.1-0.6-0.2c-4.7-1.2-11.2,4.6-13.5,8.2c-0.1,0.2-1.3,2.7-2,4.3c0.3-1,0.6-2,0.8-3c0.5-2,1.1-4.1,1.6-6.3
		c0.2-1.1,0.5-2.2,0.7-3.2s0.4-2.3,0.6-3.4c0.4-2.7,0.7-5.3,0.9-8.1c1.8,0.5,8.2,2.2,11.3,1.7c3.2-0.5,7.1-2,8.7-5
		c1.6-2.7,0.7-6.2-2.1-7.8c-0.2-0.1-0.3-0.2-0.5-0.3c-4.4-1.8-11.8,2.8-14.6,6.1c-0.2,0.2-1.9,2.8-2.8,4.2c0.1-1.6,0.2-3.3,0.3-4.9
		c0.2-4.8,0.2-9.7,0.3-14.6l0.1-4.4c0.7,0.2,8.2,2.3,11.8,1.8c3.2-0.5,7.1-2,8.7-5c1.6-2.7,0.7-6.2-2.1-7.8
		c-0.2-0.1-0.3-0.2-0.5-0.3c-4.5-1.9-11.8,2.8-14.5,6.1c-0.2,0.2-2.7,3.9-3.3,4.9c0-3.3,0.2-6.5,0.4-9.7c0.3-4.3,0.9-8.6,1.7-12.9
		c0.3,0.1,8.2,2.3,11.8,1.8c3.2-0.5,7.1-2,8.7-5c1.6-2.7,0.7-6.2-2-7.8l0,0c-0.2-0.1-0.4-0.2-0.6-0.3c-4.5-1.9-11.8,2.8-14.5,6.1
		c-0.2,0.2-2.1,3-3,4.4l-0.2-0.1c1-4.3,2.3-8.4,4.1-12.5c0.9-2.2,1.9-4.3,2.9-6.3c1.4,0.6,7.9,3.2,11.3,3c3.4-0.2,7.3-1.2,9.2-4
		c1.9-2.5,1.3-6.1-1.2-8c-0.2-0.1-0.3-0.2-0.5-0.3c-4.2-2.3-12,1.6-15.1,4.4c-0.2,0.2-1.7,2-2.8,3.3c0.5-0.9,1-1.8,1.4-2.7
		c1.8-3.2,3.6-6,5.2-8.5c0.9-1.4,1.8-2.6,2.6-3.8c1.7-0.2,8.5-0.9,11.3-2.6c2.9-1.6,5.9-4.4,6.3-7.8c0.5-3.1-1.6-6-4.7-6.5
		c-0.2,0-0.4-0.1-0.6-0.1c-4.8-0.1-10,6.9-11.4,10.9c-0.1,0.4-1.4,6-1.3,6h0.1c-0.8,1.1-1.7,2.3-2.6,3.6c-1.7,2.5-3.5,5.2-5.4,8.4
		c-2,3.4-3.8,6.9-5.5,10.5c-1.8,4-3.3,8.2-4.3,12.5v0.1c-0.1-1.4-0.5-5.3-0.5-5.6c-0.9-4.2-5.1-11.8-9.9-12.3
		c-3.1-0.2-5.9,2.1-6.1,5.2c0,0.2,0,0.4,0,0.6c0,3.4,2.7,6.6,5.3,8.5c2.9,2.2,10.6,3.9,11.2,4c-1,4.4-1.7,8.8-2.1,13.3
		c-0.2,2.6-0.4,5.2-0.5,7.9c-0.1-1.2-0.2-2.3-0.3-2.5c-0.9-4.2-5.1-11.8-9.9-12.3c-3.1-0.2-5.9,2.1-6.1,5.2l0,0c0,0.2,0,0.4,0,0.6
		c0,3.4,2.7,6.6,5.3,8.5c2.6,1.9,9.1,3.6,10.8,4c0,1-0.1,2-0.1,3.1c-0.2,4.9-0.3,9.7-0.7,14.5c-0.1,1.7-0.3,3.3-0.4,5
		c-0.1-1.1-0.2-2-0.2-2.1c-0.9-4.2-5.1-11.8-9.9-12.3c-3.1-0.2-5.9,2.1-6.1,5.3c0,0.2,0,0.4,0,0.6c0,3.4,2.7,6.6,5.3,8.5
		c2.6,1.9,8.5,3.4,10.5,3.9c-0.2,1.7-0.4,3.4-0.7,5c-0.2,1.1-0.4,2.2-0.7,3.3c-0.3,1.1-0.5,2.2-0.8,3.2c-0.5,2.1-1.1,4.2-1.7,6.1
		c-0.4,1.4-0.8,2.7-1.2,4c0.1-1.7,0.3-4.9,0.3-5.2c-0.2-4.3-3.3-12.4-7.9-13.7c-3.1-0.7-6.1,1.2-6.8,4.3c0,0.2-0.1,0.4-0.1,0.6
		c-0.5,3.4,1.7,6.9,3.9,9.2c2.5,2.5,9.5,5.3,10.4,5.7c-0.7,2.2-1.4,4.3-2.1,6.3c-2.3,6.9-4.6,12.5-6.2,16.4
		c-0.1,0.1-0.1,0.3-0.2,0.4l2.9,1.6l0.3-0.8c1.6-4,3.6-9.7,5.9-16.7c0.7-2.2,1.4-4.6,2.1-7c2.4,0.3,4.8,0.4,7.3,0.5
		c0.9,3.5,4.9,9.3,5.4,10.1c-1.8,1.4-3.5,2.8-5.2,4.1c-5.8,4.4-10.7,7.9-14.2,10.3l-0.4,0.3l3.2,1.7c3.4-2.4,8-5.8,13.2-10.1
		c1.8-1.5,3.7-3.1,5.7-4.7c0.7,0.6,6.5,5.5,9.9,6.5c3.2,0.9,7.3,1.2,10-0.9c2.6-1.8,3.2-5.4,1.4-8c-0.1-0.2-0.2-0.3-0.3-0.4
		c-3.3-3.6-11.9-2.4-15.8-0.6c-0.2,0.1-2.6,1.6-4.1,2.5c0.8-0.7,1.6-1.3,2.4-2c1.6-1.4,3.2-2.8,4.8-4.4l2.4-2.3
		c0.8-0.8,1.6-1.7,2.4-2.5c1.8-2,3.5-4.1,5.2-6.2c1.2,1.4,5.6,6.3,8.5,7.6c2.9,1.3,7,2.3,10,0.7c2.8-1.4,4-4.8,2.6-7.6l0,0
		c-0.1-0.2-0.2-0.4-0.3-0.6c-2.7-4-11.4-4.1-15.5-2.9c-0.2,0-3.2,1.2-4.7,1.9c1-1.3,2-2.6,3-4c2.8-3.9,5.6-7.9,8.3-11.9
		c0.8-1.2,1.7-2.5,2.5-3.7c0.4,0.5,5.5,6.4,8.8,7.9c2.9,1.3,7,2.3,10,0.7c2.8-1.4,4-4.8,2.6-7.6c-0.1-0.2-0.2-0.4-0.3-0.5
		c-2.7-4-11.4-4.1-15.5-2.9c-0.3,0.1-4.5,1.8-5.5,2.3c1.9-2.7,3.8-5.3,5.7-7.9c2.6-3.4,5.5-6.7,8.6-9.8c0.2,0.2,5.5,6.4,8.9,8
		c2.9,1.3,7,2.2,10,0.7c2.8-1.4,4-4.8,2.6-7.6c-0.1-0.2-0.2-0.4-0.3-0.5c-2.7-4-11.4-4.1-15.5-3c-0.3,0-3.4,1.4-4.9,2l-0.2-0.2
		c3.2-3,6.6-5.8,10.3-8.2c2-1.4,4-2.5,5.9-3.6c0.9,1.2,4.9,7,7.8,8.7c2.9,1.7,6.7,3,9.9,1.8c3-1.1,4.5-4.4,3.4-7.3l0,0
		c-0.1-0.2-0.2-0.4-0.2-0.6c-2.2-4.3-10.9-5.3-15.1-4.6c-0.2,0-2.5,0.7-4.2,1.2c0.9-0.5,1.8-1,2.7-1.4c3.2-1.7,6.3-3,9-4.2
		c1.6-0.7,3-1.2,4.3-1.7c1.5,0.8,7.6,3.9,10.9,4.1s7.3-0.4,9.6-3c2.1-2.4,1.9-6-0.5-8.1C632.6,538,632.4,537.9,632.3,537.8"/>
	<path class="st1" d="M521.4,509.7c2.3,3,9.8,6.9,9.8,6.9s1.1-5.7,1.1-6.1c0.2-4.3-1.8-12.7-6.3-14.5c-3-1-6.2,0.5-7.3,3.5
		c-0.1,0.2-0.1,0.4-0.2,0.6C517.7,503.3,519.5,507.1,521.4,509.7"/>
	<path class="st0" d="M597.9,530.2c-1.2,0-2.4,0.4-3.4,1.2c-0.2,0.1-0.3,0.2-0.5,0.4c-2.6,2.2-3.2,6.3-2.9,9.6
		c0.3,3.6,4.1,10.7,4.4,11.1l0,0c-0.3-0.5-4-7.5-4.4-11.1c-0.2-3.3,0.4-7.4,2.9-9.6c0.2-0.1,0.3-0.3,0.5-0.4
		C595.5,530.6,596.7,530.2,597.9,530.2L597.9,530.2"/>
	<path class="st3" d="M597.9,530.2c-1.2,0-2.4,0.4-3.4,1.2c-0.2,0.1-0.3,0.2-0.5,0.4c-2.6,2.2-3.2,6.3-2.9,9.6
		c0.3,3.6,4.1,10.7,4.4,11.1l0.1-0.1c0.6-0.6,4-4.1,4.2-4.4c2.6-3.4,5.5-11.6,2.7-15.5C601.3,531,599.6,530.2,597.9,530.2"/>
	<polyline class="st3" points="595.6,552.4 595.6,552.4 595.4,552.5 595.6,552.4 	"/>
	<path class="st3" d="M553.9,483.9c-4.8,0-9.8,6.9-11.2,10.9c-0.1,0.3-1.3,5.6-1.3,6v0h0.1c-0.8,1.1-1.7,2.3-2.6,3.6
		c-1.7,2.5-3.5,5.2-5.4,8.4c-2,3.4-3.8,6.9-5.5,10.5c-1.8,4-3.3,8.2-4.3,12.5v0.1c-0.1-1.4-0.5-5.3-0.5-5.6
		c-0.9-4.2-5.1-11.8-9.9-12.3c-0.2,0-0.3,0-0.4,0c-3,0-5.4,2.3-5.7,5.3c0,0.1,0,0.3,0,0.4v0.2c0,3.4,2.7,6.6,5.3,8.5
		c2.9,2.2,10.6,3.9,11.2,4c-1,4.4-1.7,8.8-2.1,13.3c-0.2,2.6-0.4,5.2-0.5,7.9c-0.1-1.2-0.2-2.3-0.3-2.4c-0.9-4.2-5.1-11.8-9.9-12.3
		c-0.1,0-0.3,0-0.4,0c-2.9,0-5.4,2.3-5.7,5.2l0,0c0,0.2,0,0.3,0,0.4v0.2c0,3.4,2.7,6.6,5.3,8.5c2.6,1.9,9.1,3.6,10.8,4
		c0,1-0.1,2-0.1,3c-0.2,4.9-0.3,9.7-0.7,14.5c-0.1,1.7-0.3,3.3-0.4,5c-0.1-1.1-0.2-2-0.2-2.1c-0.9-4.2-5.1-11.8-9.9-12.3
		c-0.1,0-0.3,0-0.4,0c-3,0-5.5,2.3-5.7,5.3c0,0.1,0,0.3,0,0.4v0.2c0,3.4,2.7,6.6,5.3,8.5c2.6,1.9,8.5,3.4,10.5,3.9
		c-0.2,1.7-0.4,3.4-0.7,5c-0.2,1.1-0.4,2.2-0.7,3.3c-0.3,1.1-0.5,2.2-0.8,3.2c-0.5,2.1-1.1,4.2-1.7,6.1c-0.4,1.4-0.8,2.7-1.2,4
		c0.1-1.6,0.3-4.7,0.3-5.2v-0.1c-0.2-4.3-3.3-12.4-7.9-13.7c-0.4-0.1-0.9-0.1-1.3-0.1c-2.6,0-5,1.8-5.5,4.4c0,0.2-0.1,0.4-0.1,0.6
		c0,0.3-0.1,0.7-0.1,1c0,3.1,2,6.2,4,8.2c2.5,2.5,9.5,5.3,10.4,5.7c-0.7,2.2-1.4,4.3-2,6.3c-2.3,6.9-4.6,12.5-6.2,16.4
		c-0.1,0.1-0.1,0.3-0.2,0.4l2.9,1.6l0.3-0.8c1.6-4,3.6-9.7,5.9-16.7c0.7-2.2,1.4-4.6,2.1-7c2.4,0.3,4.8,0.4,7.3,0.5
		c0.9,3.5,4.9,9.3,5.4,10.1c-1.8,1.4-3.5,2.8-5.2,4.1c-5.8,4.4-10.7,7.9-14.2,10.3l-0.4,0.3l3.2,1.7c3.4-2.5,8-5.8,13.2-10.1
		c1.8-1.4,3.7-3,5.7-4.7c0.7,0.6,6.5,5.5,9.9,6.5c1.4,0.4,3,0.7,4.6,0.7c2,0,3.9-0.4,5.4-1.6c1.6-1.1,2.4-2.9,2.4-4.7
		c0-1.1-0.3-2.3-1-3.3c-0.1-0.2-0.2-0.3-0.3-0.5c-1.5-1.7-4.3-2.3-7.1-2.3c-3.2,0-6.6,0.8-8.7,1.7c-0.2,0.1-2.6,1.6-4.1,2.5
		c0.8-0.7,1.6-1.3,2.4-2c1.6-1.4,3.2-2.8,4.8-4.4l2.4-2.3c0.8-0.8,1.6-1.7,2.4-2.5c1.8-2,3.5-4.1,5.2-6.2c1.2,1.4,5.6,6.3,8.5,7.6
		c1.8,0.8,4.1,1.5,6.3,1.5c1.3,0,2.6-0.2,3.7-0.8c2-1,3.2-3,3.2-5.1c0-0.8-0.2-1.7-0.6-2.5l0,0c-0.1-0.2-0.2-0.4-0.3-0.6
		c-1.8-2.6-6.2-3.6-10.1-3.6c-2,0-4,0.2-5.4,0.7c-0.2,0-3.2,1.2-4.7,1.9c1-1.3,2-2.6,3-3.9c2.8-3.9,5.6-7.9,8.3-12
		c0.8-1.2,1.7-2.4,2.5-3.7c0.4,0.5,5.5,6.4,8.8,7.9c1.8,0.8,4.1,1.5,6.3,1.5c1.3,0,2.6-0.2,3.8-0.9c2-1,3.2-3,3.2-5.1
		c0-0.8-0.2-1.7-0.6-2.5c-0.1-0.2-0.2-0.4-0.3-0.5c-1.8-2.6-6.2-3.6-10.1-3.6c-2,0-4,0.2-5.4,0.7c-0.3,0.1-4.5,1.8-5.5,2.3
		c1.9-2.7,3.8-5.3,5.7-7.9c2.6-3.4,5.5-6.7,8.6-9.8c0.2,0.2,5.5,6.4,8.9,8c1.8,0.8,4.1,1.5,6.2,1.5c1.3,0,2.6-0.2,3.8-0.8
		c2-1,3.2-3,3.2-5.1c0-0.8-0.2-1.7-0.6-2.5c-0.1-0.2-0.2-0.4-0.3-0.5c-1.8-2.6-6.2-3.6-10.2-3.6c-2,0-3.9,0.2-5.3,0.7
		c-0.3,0-3.4,1.4-4.9,2l-0.2-0.2c3.2-3,6.6-5.8,10.3-8.2c2-1.4,4-2.5,5.9-3.6c0.9,1.2,4.9,7,7.8,8.7c2.1,1.2,4.6,2.3,7.1,2.3
		c1,0,1.9-0.2,2.8-0.5c2.3-0.8,3.8-3,3.8-5.4c0-0.7-0.1-1.3-0.3-2l0,0c-0.1-0.2-0.2-0.4-0.2-0.6c-1.8-3.5-7.9-4.8-12.3-4.8
		c-1,0-2,0.1-2.8,0.2c-0.2,0-2.5,0.7-4.2,1.2c0.9-0.5,1.8-1,2.7-1.4c3.2-1.7,6.3-3,9-4.2c1.6-0.7,3-1.2,4.3-1.7
		c1.5,0.8,7.6,3.9,10.9,4.1c0.4,0,0.8,0,1.2,0c3,0,6.4-0.7,8.4-3c1-1.1,1.4-2.4,1.4-3.8c0-1.6-0.7-3.2-1.9-4.3
		c-0.1-0.1-0.2-0.2-0.4-0.3c-1.1-0.8-2.5-1.1-4.1-1.1c-4,0-8.9,2.1-11.4,4c-0.3,0.2-4.5,4.2-4.5,4.3l0,0h0.1c-1.3,0.5-2.7,1-4.2,1.6
		c-2.8,1.1-5.9,2.4-9.1,4c-1.2,0.6-2.4,1.2-3.6,1.8l-0.1,0.1c-2.2,1.2-4.5,2.5-6.6,3.8c-3.7,2.3-7.2,5-10.5,8l-0.1,0.1
		c0.7-1.2,2.5-4.7,2.7-5c0.7-1.8,1.3-4.7,1.3-7.5c0-3.3-0.7-6.6-2.7-8.2c-1-0.8-2.2-1.2-3.5-1.2c-1.7,0-3.4,0.8-4.5,2.2
		c-0.1,0.2-0.2,0.3-0.3,0.5c-0.9,1.4-1.2,3-1.2,4.8c0,1.8,0.4,3.7,1,5.3c1.2,3.4,6.7,9.1,7.1,9.5c-3.2,3.1-6.3,6.4-9.1,9.9
		c-1.6,2-3.2,4.1-4.7,6.3c0.6-1.1,1.1-2,1.1-2.2c0.7-1.8,1.3-4.7,1.3-7.5c0-3.3-0.7-6.6-2.8-8.3c-1-0.8-2.2-1.2-3.5-1.2
		c-1.7,0-3.4,0.8-4.5,2.2c-0.1,0.2-0.2,0.3-0.3,0.5c-0.9,1.4-1.2,3-1.2,4.7c0,1.8,0.4,3.7,1,5.3c1.1,3,5.6,8,6.8,9.3
		c-0.6,0.8-1.2,1.6-1.8,2.5c-2.8,3.9-5.7,7.9-8.5,11.7c-1,1.3-2.1,2.6-3.2,3.9c0.5-0.9,0.9-1.8,1-1.9c0.7-1.8,1.3-4.7,1.3-7.5
		c0-3.3-0.7-6.6-2.7-8.3c-1-0.8-2.2-1.2-3.5-1.2c-1.2,0-2.4,0.4-3.4,1.1c-0.4,0.3-0.8,0.7-1.1,1.1l0,0c-0.1,0.2-0.2,0.3-0.3,0.5
		c-0.2,0.3-0.4,0.6-0.5,0.9c-0.5,1.2-0.7,2.5-0.7,3.8c0,1.8,0.4,3.7,1,5.3c1.1,3,5.2,7.5,6.6,9c-1.1,1.3-2.2,2.6-3.3,3.8
		c-0.8,0.8-1.5,1.6-2.3,2.4l-2.5,2.3c-1.6,1.4-3.2,2.8-4.7,4.2c-1.1,0.9-2.2,1.8-3.2,2.7c1-1.3,3-4,3.2-4.2
		c1.7-3.2,2.6-6.8,2.6-10.4c0-0.2,0-0.3,0-0.5c0.2-0.4,0.4-0.7,0.5-1.1c0.3-0.7,0.4-1.4,0.4-2.1c0-2.3-1.4-4.4-3.6-5.3l0,0
		c-0.2-0.1-0.4-0.1-0.6-0.2c-0.4-0.1-0.9-0.2-1.3-0.2c-4.5,0-10.1,5.1-12.2,8.4c-0.1,0.2-1.3,2.7-2,4.3c0.3-1,0.6-2,0.8-3
		c0.5-2,1.1-4.1,1.6-6.3c0.2-1.1,0.5-2.2,0.7-3.2s0.4-2.3,0.6-3.4c0.4-2.7,0.7-5.3,0.9-8.1c1.6,0.4,6.6,1.8,10,1.8
		c0.5,0,0.9,0,1.3-0.1c3.2-0.5,7.1-2,8.7-5c0.5-0.9,0.8-1.9,0.8-2.9c0-2-1-3.9-2.8-4.9c-0.2-0.1-0.3-0.2-0.5-0.3
		c-0.7-0.3-1.5-0.4-2.3-0.4c-4.3,0-9.9,3.8-12.3,6.5c-0.2,0.2-1.9,2.8-2.8,4.2c0.1-1.6,0.2-3.3,0.3-4.9c0.2-4.8,0.2-9.7,0.3-14.5
		l0.1-4.5c0.6,0.2,6.6,1.8,10.4,1.8c0.5,0,0.9,0,1.3-0.1c3.2-0.5,7.1-2,8.7-5c0.5-0.9,0.8-1.9,0.8-2.9c0-2-1-3.9-2.8-4.9
		c-0.2-0.1-0.3-0.2-0.5-0.3c-0.7-0.3-1.5-0.4-2.3-0.4c-4.4,0-9.9,3.8-12.3,6.5c-0.2,0.2-2.7,3.9-3.3,4.9c0-3.3,0.2-6.5,0.4-9.7
		c0.3-4.3,0.9-8.6,1.7-12.9c0.3,0.1,6.5,1.9,10.5,1.9c0.5,0,0.9,0,1.3-0.1c3.2-0.5,7.1-2,8.7-5c0.5-0.9,0.8-1.9,0.8-2.9
		c0-1.9-1-3.8-2.8-4.9l0,0c-0.2-0.1-0.4-0.2-0.6-0.3c-0.7-0.3-1.5-0.4-2.3-0.4c-4.4,0-9.9,3.8-12.3,6.5c-0.2,0.2-2.1,3-3,4.4
		l-0.2-0.1c1-4.3,2.3-8.4,4.1-12.5c0.9-2.2,1.9-4.3,2.9-6.3c1.4,0.6,7.4,3,10.9,3c0.1,0,0.2,0,0.4,0c3.4-0.2,7.3-1.2,9.2-4
		c0.8-1,1.1-2.2,1.1-3.4c0-1.7-0.8-3.5-2.3-4.6c-0.2-0.1-0.3-0.2-0.5-0.3c-0.9-0.5-2-0.7-3.1-0.7c-4.2,0-9.6,2.9-12,5.2
		c-0.2,0.2-1.7,2-2.8,3.3c0.5-0.9,1-1.8,1.4-2.7c1.8-3.2,3.6-6,5.2-8.5c0.9-1.4,1.8-2.6,2.6-3.8c1.7-0.2,8.5-0.9,11.3-2.6
		c2.9-1.6,5.9-4.4,6.3-7.8c0-0.3,0.1-0.6,0.1-0.9c0-2.7-2-5.1-4.8-5.6C554.4,484,554.2,484,553.9,483.9L553.9,483.9"/>
	<path class="st4" d="M524.1,495.7c-2.3,0-4.5,1.5-5.4,3.8c-0.1,0.2-0.1,0.4-0.2,0.6c-0.9,3.3,0.9,7.1,2.9,9.6
		c2.3,3,9.8,6.9,9.8,6.9l0,0c-0.1,0-7.5-3.9-9.8-6.9c-2-2.6-3.7-6.4-2.9-9.6c0-0.2,0.1-0.4,0.2-0.6
		C519.6,497.1,521.8,495.7,524.1,495.7"/>
	<path class="st3" d="M524.1,495.7c-2.3,0-4.5,1.5-5.4,3.8c-0.1,0.2-0.1,0.4-0.2,0.6c-0.9,3.3,0.9,7.1,2.9,9.6
		c2.3,3,9.7,6.9,9.8,6.9c0-0.1,1.1-5.7,1.1-6.1c0.2-4.3-1.8-12.7-6.3-14.5C525.4,495.8,524.7,495.7,524.1,495.7"/>
	<path class="st1" d="M516.7,590.2c0,0-26.3-63.6-41.1-60.8c-14.8,2.8,25.3,101.3,25.3,101.3s-46.4-87.5-78-87.5
		s11.6,96.7,51.8,128.9c0,0-63.2-68.1-100.1-53.4c-36.9,14.7,73.8,83.8,73.8,83.8s-64.3-20.3-56.9-4.6c7.4,15.7,27.4,18.4,27.4,18.4
		l-72.8,3.7h252.9l-56.9-5.5c0,0,59-29.5,43.2-41.4c-15.8-12-50.6,13.8-50.6,13.8s60.1-66.3,48.5-91.2
		c-11.6-24.9-63.2,45.1-63.2,45.1s42.2-89.3,33.7-105C545.1,520.2,516.7,590.2,516.7,590.2z"/>
	<path class="st5" d="M516.7,590.2c0,0-26.3-63.6-41.1-60.8c-14.8,2.8,25.3,101.3,25.3,101.3s-46.4-87.5-78-87.5
		s11.6,96.7,51.8,128.9c0,0-63.2-68.1-100.1-53.4c-36.9,14.7,73.8,83.8,73.8,83.8s-64.3-20.3-56.9-4.6c7.4,15.7,27.4,18.4,27.4,18.4
		l-72.8,3.7h252.9l-56.9-5.5c0,0,59-29.5,43.2-41.4c-15.8-12-50.6,13.8-50.6,13.8s60.1-66.3,48.5-91.2
		c-11.6-24.9-63.2,45.1-63.2,45.1s42.2-89.3,33.7-105C545.1,520.2,516.7,590.2,516.7,590.2z"/>
	<path class="st6" d="M502.4,711.4c-0.3,0-0.5,0-0.5,0c-0.4,0-0.8-0.4-0.8-0.8c0-0.5,0.3-49.4,23.2-117.3c0.1-0.4,0.6-0.6,1-0.5
		s0.6,0.6,0.5,1c-21.3,62.9-23,109.4-23.1,116c4.6,0,29.3-1.2,54.6-19.9c0.3-0.3,0.8-0.2,1.1,0.2c0.3,0.3,0.2,0.8-0.2,1.1l0,0
		C532.1,710.6,506.5,711.4,502.4,711.4z"/>
	<path class="st6" d="M513.5,631.3c-0.4,0-0.7-0.2-0.8-0.6c-4.8-20.4-11.1-40.5-18.9-60c-0.2-0.4,0-0.9,0.4-1c0.4-0.2,0.9,0,1,0.4
		l0,0c7.9,19.6,14.2,39.7,19,60.2c0.1,0.4-0.2,0.8-0.6,0.9L513.5,631.3z"/>
	<path class="st6" d="M504.1,678.6l-0.1,0c-0.2,0-0.4-0.2-0.5-0.3l-59-87.4c-0.2-0.4-0.1-0.9,0.2-1.1c0.4-0.2,0.8-0.1,1.1,0.2
		l58.5,86.7c5.3-4.5,40.5-34.7,53-52c0.3-0.3,0.8-0.4,1.1-0.1c0.3,0.2,0.4,0.7,0.2,1.1c-13.6,18.8-53.5,52.5-53.9,52.8
		C504.4,678.6,504.2,678.6,504.1,678.6z"/>
	<path class="st6" d="M503,699.8c-0.1,0-0.2,0-0.3-0.1c-0.6-0.3-62.6-29.7-87.6-46.4c-0.4-0.2-0.5-0.7-0.2-1.1
		c0.2-0.4,0.7-0.5,1.1-0.2c25,16.7,86.8,46,87.4,46.3c0.4,0.2,0.6,0.7,0.4,1.1C503.6,699.6,503.3,699.8,503,699.8L503,699.8z"/>
	<path class="st6" d="M179.6,143.7h309.4c3.7,0,6.8,3,6.8,6.8v568.4c0,3.7-3,6.8-6.8,6.8H179.6c-3.7,0-6.8-3-6.8-6.8V150.4
		C172.8,146.7,175.9,143.7,179.6,143.7"/>
	<path class="st6" d="M485,726.3H183.5c-6.3,0-11.4-5.1-11.4-11.5V154.3c0-6.3,5.1-11.4,11.4-11.4H485c6.3,0,11.4,5.1,11.5,11.4
		v560.5C496.5,721.2,491.3,726.3,485,726.3 M183.5,144.5c-5.4,0-9.9,4.4-9.9,9.9v560.5c0,5.4,4.4,9.9,9.9,9.9H485
		c5.5,0,9.9-4.4,9.9-9.9V154.3c0-5.4-4.4-9.9-9.9-9.9L183.5,144.5"/>
	<path class="st1" d="M356.6,178.4h-40.2c-2.3,0-4.1-1.8-4.1-4.1l0,0v-0.1c0-2.3,1.8-4.1,4.1-4.1l0,0h40.2c2.3,0,4.1,1.8,4.1,4.1
		C360.7,176.5,358.9,178.4,356.6,178.4L356.6,178.4z"/>
	<path class="st1" d="M343.3,688.7c0-3.5-2.9-6.4-6.4-6.4s-6.4,2.9-6.4,6.4c0,3.5,2.9,6.4,6.4,6.4S343.3,692.3,343.3,688.7z"/>
	<path class="st6" d="M647.9,247.7c0,0-0.7-6.2-4.2-6.2c-3.6,0-2.6,1.3-5.8,0c-3.2-1.3-3.6-4.2-5.5-1.9s1,4.2-1.9,3.6
		s-3.9-2.6-5.2-1.6c-0.8,0.5-1.4,1.2-2,1.9l-0.7,1.3c0.9-1.5,2.8-2,4.3-1.1c0.2,0.1,0.4,0.3,0.5,0.4c2.9,2.3,5.2,2.9,5.8,1.3
		s4.5-1,4.5,0c0.1,0.8,0.5,1.6,1,2.3c0,0-8.8-0.3-11.4-0.3s-4.2-2.3-8.1-1s-7.2,2.6-8.8,4.6s1.3,4.9,0.7,6.5
		c-0.7,1.6-7.5,2.9-7.5,5.2c0,2.3,2.9,2.9-0.3,4.6s-6.2,3.6-5.5,5.5c0.7,1.9,2.6,4.2,2,6.2c-0.6,1.9-4.5,5.2-2.9,7.1
		c1.6,1.9,2.9,0.7,2.3,3.2s-2.9,7.8-1,8.8s4.2,2.3,3.9,4.9c-0.3,2.6-1,4.5,0.7,6.2s5.8,1.9,5.8,5.8s0.3,5.2,1.9,6.2s4.5-0.6,5.5,2.6
		c1,3.2,4.9,3.6,6.8,2.9s3.6-1.9,4.9,1.6s3.2,4.2,5.8,3.6s6.2,0.3,7.5,2.3s4.9,2,6.8,0.6s3.6-4.2,4.9-1.6c1.3,2.6,4.9,5.2,6.5,3.2
		s2.9-5.2,4.9-3.2c1.9,1.7,4.8,1.6,6.5-0.3l0,0l0,0c1.5-2,4-3,6.5-2.6c2.6,0.7,5.9,1,6.2-2.3c0.3-3.2,0.3-5.5,2.9-4.9
		s6.5,1.9,6.8-1.3c0.3-3.2,0.3-5.2,2.3-5.2s5.2-2.3,4.9-4.2c-0.3-2-1-8.8,0-8.8s2.6-2.6,1.6-5.8s-1-5.8,0-6.2s2.3-3.9,0.3-6.5
		s-2.6-4.5-0.7-5.8c2-1.4,2.4-4.1,1-6c-0.1-0.2-0.2-0.3-0.4-0.5c-1.9-2.3-2.9-3.9-2.9-5.5c0-1.6-3.9-5.5-5.2-6.5
		c-1.3-1-2.6-3.2-2.6-6.8c0-3.7-0.7-3.9-6.5-6.5c-3.5-1.4-6.8-3.5-9.5-6.2c-2.3-1.9-8.5-1.9-11-0.6
		C661.7,241.9,652.4,240.2,647.9,247.7L647.9,247.7z"/>
	<path class="st6" d="M657.7,337.8c-0.1,0-0.3,0-0.4,0c-2.1-0.2-4.3-2.4-5.3-4.3c-0.2-0.5-0.4-0.6-0.5-0.6c-0.3-0.1-1.1,0.7-1.7,1.2
		c-0.5,0.5-1,0.9-1.6,1.3c-2.3,1.5-6.3,1.5-7.9-0.9c-1.1-1.6-4.3-2.5-6.6-2c-3.3,0.8-5.5-0.5-6.8-4.1c-0.2-0.7-0.6-1.3-1.2-1.8
		c-0.4-0.2-1.1,0.1-1.9,0.4c-0.3,0.1-0.6,0.2-0.8,0.3c-1.8,0.5-3.7,0.4-5.3-0.4c-1.2-0.6-2.1-1.7-2.5-3c-0.5-1.5-1.3-1.6-2.8-1.6
		c-0.8,0-1.7-0.1-2.4-0.5c-2.1-1.3-2.3-3.1-2.3-6.9c0-2.2-1.6-3-3.3-3.8c-0.8-0.4-1.6-0.8-2.3-1.4c-1.6-1.6-1.3-3.6-1-5.6
		c0.1-0.4,0.1-0.8,0.2-1.2c0.2-1.9-1.2-2.9-3.5-4.1c-2.2-1.1-1-4.6,0-7.8c0.2-0.7,0.4-1.3,0.6-1.9c0.1-0.3,0.2-0.6,0.1-1
		c-0.1,0-0.2-0.1-0.3-0.1c-0.8-0.3-1.4-0.8-1.9-1.4c-1.5-1.8,0.2-4,1.5-5.8c0.5-0.6,1-1.3,1.3-2.1c0.3-1-0.3-2.3-1-3.6
		c-0.4-0.7-0.7-1.3-0.9-2c-0.9-2.7,2.7-4.9,5.9-6.5c1-0.5,1.1-0.8,1.1-0.8c-0.1-0.2-0.2-0.4-0.3-0.6c-0.5-0.7-0.8-1.5-0.9-2.4
		c0-1.8,2.4-2.9,4.7-3.9c1-0.4,2.7-1.2,2.9-1.6c0.2-0.4-0.2-1.3-0.5-2c-0.6-1.4-1.3-3.2,0-4.7c1.7-2,4.9-3.4,9.1-4.8
		c0.9-0.3,1.9-0.5,2.8-0.4c-0.2-0.2-0.2-0.5,0-0.8l0.7-1.3c0.6-0.9,1.4-1.6,2.3-2.2c1.1-0.9,2.2-0.2,3.2,0.3
		c0.8,0.5,1.7,0.9,2.7,1.1c0.1,0,0.3,0.1,0.4,0.1c-0.3-1.2,0-2.5,0.8-3.4c0.4-0.6,1.1-1,1.8-1.1c0.8,0.1,1.6,0.5,2.1,1.1
		c0.7,0.7,1.6,1.3,2.5,1.7c1.7,0.7,2,0.6,2.6,0.4c1-0.3,1.9-0.4,2.9-0.4c2.8,0,4.1,3,4.6,5c3.6-4.3,8.9-4.9,12.5-5.3
		c1.1-0.1,2.1-0.2,3.2-0.6c2.7-1.3,9.2-1.5,11.9,0.8c2.6,2.6,5.8,4.7,9.2,6l0.3,0.1c5.6,2.5,6.7,3,6.7,7.1c0,4.1,1.8,5.8,2.3,6.2
		c0.9,0.7,5.5,5,5.5,7.1c0,1.3,0.8,2.7,2.7,5c0.2,0.2,0.3,0.3,0.4,0.5c1.6,2.3,1.1,5.5-1.2,7.1l0,0c-0.4,0.2-0.7,0.6-0.8,1.1
		c-0.1,0.8,0.4,2,1.7,3.6c1.1,1.6,1.5,3.7,0.9,5.6c-0.2,0.5-0.7,1.8-1.6,2.1c-0.2,0.2-0.5,1.9,0.5,5.2c0.7,2,0.4,4.1-0.7,5.8
		c-0.3,0.5-0.7,0.8-1.2,1c-0.3,1.1,0,5.5,0.4,7.9c0.1,1-0.2,2-1,2.7c-1.2,1.4-2.9,2.3-4.7,2.5c-1,0-1.1,0.8-1.4,3.7l-0.1,0.8
		c0,0.9-0.5,1.7-1.2,2.2c-1.5,1.1-4,0.4-6-0.1l-0.6-0.2c-0.3-0.1-0.7-0.1-1.1,0c-0.5,0.4-0.7,1.9-0.8,3.5l-0.1,0.7
		c0,1.1-0.6,2.1-1.4,2.7c-1.2,0.9-3,0.9-5.7,0.2c-2.2-0.3-4.3,0.6-5.7,2.3c-1,1.1-2.3,1.8-3.8,1.8c-1.4,0.1-2.8-0.4-3.9-1.4
		c-0.2-0.2-0.4-0.4-0.7-0.4c-0.5,0-1.3,1.2-2,2.1c-0.3,0.5-0.7,1-1.1,1.5C659.3,337.5,658.5,337.8,657.7,337.8L657.7,337.8z
		 M651.5,331.2c0.1,0,0.2,0,0.3,0c0.8,0.2,1.4,0.8,1.6,1.5c0.8,1.7,2.7,3.3,4.1,3.5c0.4,0.1,0.8-0.1,1.1-0.4c0.3-0.4,0.7-0.9,1-1.4
		c0.9-1.4,1.8-2.6,3.1-2.8c0.7,0,1.5,0.3,1.9,0.8c1.5,1.4,3.9,1.3,5.3-0.3c1.7-2.2,4.5-3.3,7.2-2.9c2.2,0.6,3.7,0.5,4.5,0
		c0.5-0.4,0.8-1,0.8-1.6l0.1-0.6c0.2-2.1,0.4-3.8,1.5-4.6c0.7-0.4,1.6-0.5,2.3-0.3l0.6,0.2c1.6,0.4,3.8,1,4.7,0.3
		c0.3-0.3,0.5-0.7,0.5-1.1l0.1-0.7c0.3-2.9,0.5-5.2,3-5.2c1.4-0.2,2.6-0.9,3.5-1.9c0.4-0.4,0.6-0.9,0.6-1.4c0-0.1-1.2-7.9,0-9.3
		c0.2-0.2,0.5-0.4,0.8-0.4c0.2-0.2,0.5-0.5,0.6-0.7c0.6-1.3,0.7-2.7,0.2-4.1c-0.9-2.9-1.3-6.5,0.5-7.1c0.4-0.5,0.6-1,0.7-1.6
		c0.3-1.3,0-2.6-0.8-3.6c-1.6-2.1-2.2-3.6-1.9-4.9c0.2-0.9,0.7-1.6,1.5-2.1c1.6-1.1,2-3.3,0.8-4.9c-0.1-0.1-0.2-0.3-0.3-0.4
		c-1.9-2.2-3.1-4.1-3.1-6c0-1.1-3.3-4.7-4.9-5.9c-0.9-0.7-2.9-2.7-2.9-7.5c0-3-0.1-3.1-5.7-5.6l-0.3-0.1c-3.6-1.4-6.9-3.6-9.7-6.3
		c-1.9-1.6-7.7-1.7-10.1-0.5c-1.2,0.4-2.4,0.7-3.7,0.7c-3.9,0.4-9.3,1-12.4,6.1c-0.2,0.3-0.5,0.4-0.8,0.4c-0.3-0.1-0.6-0.4-0.6-0.7
		c0-0.1-0.7-5.5-3.4-5.5c-0.8,0-1.7,0.1-2.5,0.4c-1,0.3-1.6,0.4-3.7-0.4c-1.1-0.5-2.1-1.2-3-2c-0.3-0.3-0.8-0.7-1-0.7
		c0,0-0.2,0-0.7,0.6c-0.5,0.6-0.7,1.4-0.5,2.1c0.2,0.5,0.1,1.1-0.3,1.5c-0.4,0.4-1.1,0.4-2,0.2c-1.1-0.3-2.2-0.7-3.1-1.3
		c-1-0.6-1.2-0.6-1.4-0.4c-0.1,0.1-0.3,0.2-0.4,0.3c0.7,0,1.4,0.2,2,0.6c0.2,0.1,0.5,0.3,0.7,0.5c2.2,1.7,3.6,2.1,4.2,2
		c0.2-0.1,0.3-0.2,0.4-0.4c0.5-1.4,2.4-1.7,4-1.4c1.3,0.3,2.1,0.9,2.1,1.7c0.1,0.6,0.4,1.3,0.8,1.8c0.2,0.2,0.2,0.6,0.1,0.8
		c-0.1,0.3-0.4,0.4-0.7,0.4c-0.1,0-8.8-0.3-11.3-0.3c-1,0-2-0.3-3-0.7c-1.5-0.8-3.3-0.9-4.9-0.3c-4,1.3-7,2.6-8.4,4.3
		c-0.6,0.7-0.3,1.7,0.3,3.1c0.4,1.1,0.9,2.2,0.5,3.2c-0.4,1-1.8,1.6-3.7,2.5c-1.4,0.6-3.7,1.7-3.7,2.4c0,0.6,0.3,1.1,0.6,1.5
		c0.5,0.5,0.7,1.2,0.5,1.9c-0.2,0.7-0.8,1.2-1.9,1.8c-4.7,2.4-5.4,3.8-5.1,4.5c0.2,0.6,0.5,1.2,0.8,1.8c0.8,1.5,1.7,3.2,1.1,4.9
		c-0.4,0.9-0.9,1.7-1.5,2.5c-1,1.4-2.2,3.1-1.5,3.9c0.4,0.5,0.8,0.8,1.4,1c1.1,0.5,1.5,1.1,1,2.9c-0.1,0.6-0.4,1.2-0.6,2
		c-0.6,1.8-1.7,5.4-0.8,5.9c1.5,0.8,4.7,2.3,4.3,5.7c0,0.4-0.1,0.9-0.2,1.3c-0.3,2.1-0.4,3.2,0.6,4.2c0.6,0.5,1.2,0.9,1.9,1.1
		c1.8,0.9,4.2,2.1,4.2,5.2c0,4,0.3,4.8,1.6,5.5c0.5,0.2,1.1,0.3,1.7,0.3c1.4,0,3.4,0.1,4.2,2.8c0.3,0.9,0.9,1.7,1.7,2.1
		c1.3,0.6,2.7,0.7,4.1,0.3c0.3-0.1,0.5-0.2,0.8-0.3c0.9-0.5,2-0.6,3.1-0.3c1,0.6,1.7,1.5,2,2.7c1.2,3.3,2.8,3.6,4.9,3.1
		c3-0.7,6.9,0.5,8.3,2.6c1,1.5,4.1,1.5,5.7,0.4c0.5-0.4,1-0.7,1.4-1.2C649.7,332,650.5,331.2,651.5,331.2L651.5,331.2z M633.2,246.7
		c1.6,0.1,3.1,0.1,4.2,0.1c-0.2-0.4-0.3-0.8-0.4-1.3c-0.7-0.4-1.5-0.5-2.2-0.3c-0.2,0-0.7,0.1-0.8,0.4
		C633.8,246.1,633.5,246.5,633.2,246.7L633.2,246.7z M623,245.4c0.7,0.2,1.3,0.4,2,0.6c0.8,0.4,1.6,0.6,2.4,0.6c0.6,0,1.5,0,2.5,0
		c-1.1-0.5-2.1-1.1-3-1.9c-0.1-0.1-0.3-0.3-0.5-0.4c-1.1-0.7-2.6-0.3-3.2,0.8L623,245.4L623,245.4z M637,245.6L637,245.6L637,245.6
		L637,245.6z"/>
	<path class="st0" d="M668.1,324.5c-1.3,0-2.5-1-3.5-2.9c-1-2-1.5-4.2-1.6-6.5c-0.3-5.5,1.4-9.7,4.1-9.8c1.4-0.1,2.7,0.9,3.6,2.8
		c1,2,1.5,4.2,1.6,6.5c0.3,5.5-1.4,9.7-4.1,9.8L668.1,324.5z M667.3,307L667.3,307c-1.5,0.1-2.9,3.6-2.7,8.2c0.1,2,0.6,4,1.4,5.8
		c0.7,1.3,1.5,2,2.1,2c1.5-0.1,2.9-3.6,2.6-8.2c-0.1-2-0.6-4-1.4-5.8C668.8,307.7,668,307,667.3,307L667.3,307z"/>
	<path class="st0" d="M623.7,318.9c-0.2,0-0.3,0-0.5,0c-2.5-0.5-3.7-4.8-2.8-9.7c0.6-3.4,2.1-6.4,3.9-7.6c0.6-0.5,1.4-0.7,2.2-0.5
		c2.5,0.5,3.7,4.7,2.8,9.7c-0.6,3.4-2.1,6.4-3.9,7.6C624.9,318.7,624.3,318.9,623.7,318.9z M626,302.5c-0.3,0-0.6,0.1-0.8,0.3
		c-1.2,0.8-2.6,3.1-3.2,6.6c-0.8,4.5,0.4,7.7,1.5,7.9c0.3,0,0.7-0.1,1-0.3c1.2-0.8,2.6-3.1,3.2-6.6c0.8-4.5-0.3-7.7-1.5-7.9
		L626,302.5L626,302.5z"/>
	<path class="st0" d="M598.9,631.7c0,0,4.3,60.9,4.3,62.7c0,1.8-18.5,16.1-24.4,20s-9.3,5.2-7,6.7s10.6,2.6,15.2,1.6
		s14.7-5.4,18.9-5.7s7-0.5,7-4.9s-1.8-17-1.6-20.4s5.7-56.3,5.7-56.3L598.9,631.7z"/>
	<path class="st6" d="M582.5,723.9c-4.3,0-9.3-0.8-11.2-2.1c-0.6-0.3-1-1-1.1-1.7c0-1.3,1.6-2.3,4.7-4.2c1-0.6,2.1-1.3,3.4-2.1
		c6.5-4.2,23.4-17.5,24.1-19.4c0-1.3-2.8-41.5-4.3-62.6c0-0.4,0.3-0.8,0.7-0.8l0.2,0l18.1,3.7c0.4,0.1,0.7,0.5,0.6,0.9
		c-0.1,0.5-5.5,53-5.7,56.3c0.1,3.5,0.3,6.9,0.8,10.4c0.4,3.9,0.8,7.9,0.8,10c0,5.2-3.8,5.5-7.7,5.7c-2.3,0.1-6.9,1.7-10.9,3.2
		c-2.6,1-5.2,1.8-7.9,2.5C585.6,723.8,584.1,724,582.5,723.9z M571.8,720.2c0.1,0.1,0.2,0.2,0.4,0.3c2.1,1.4,10.2,2.4,14.7,1.5
		c2.6-0.7,5.2-1.5,7.7-2.5c4.3-1.5,8.8-3.1,11.3-3.2c4.3-0.3,6.2-0.5,6.2-4.1c0-2-0.4-6-0.8-9.8c-0.5-3.5-0.7-7.1-0.8-10.7
		c0.2-3.2,4.9-49.1,5.6-55.7l-16.4-3.3c0.6,8.3,4.2,60.1,4.2,61.8c0,2.7-21.6,18.6-24.8,20.7c-1.3,0.8-2.4,1.5-3.4,2.1
		C573.9,718.4,571.8,719.7,571.8,720.2L571.8,720.2z"/>
	<path class="st6" d="M605.8,717.1c4.1-0.3,7-0.5,7-4.9c0-1.6-0.2-4.2-0.5-7.1c-5.4,4.2-11.7,7.2-18.3,8.7c-4.4,1-7.9-2.1-9.1-3.4
		c-2.4,1.6-4.6,3.2-6.1,4.1c-6,3.9-9.3,5.2-7,6.7s10.6,2.6,15.2,1.6S601.7,717.3,605.8,717.1z"/>
	<path class="st6" d="M582.5,724c-4.3,0-9.3-0.8-11.2-2.1c-0.6-0.3-1-1-1.1-1.7c0-1.3,1.6-2.3,4.8-4.3c1-0.6,2.1-1.3,3.3-2.1
		c0.8-0.5,1.7-1.2,2.8-1.9c1-0.7,2.2-1.5,3.3-2.3c0.3-0.2,0.7-0.2,1,0.1c1.2,1.2,4.4,4.1,8.4,3.1c6.6-1.5,12.7-4.4,18-8.5
		c0.3-0.3,0.8-0.2,1.1,0.1c0.1,0.1,0.2,0.3,0.2,0.4c0.3,3.2,0.5,5.7,0.5,7.2c0,5.2-3.8,5.5-7.7,5.7h0c-2.2,0.1-6.8,1.7-10.7,3.1
		c-2.6,1-5.3,1.8-8,2.6C585.6,723.9,584,724,582.5,724z M571.7,720.2c0.1,0.1,0.2,0.3,0.4,0.3c2.1,1.4,10.2,2.4,14.7,1.5
		c2.7-0.7,5.2-1.5,7.8-2.5c4.3-1.5,8.7-3.1,11.2-3.2c4.3-0.3,6.2-0.6,6.2-4.1c0-1.2-0.2-3.2-0.4-5.7c-5.2,3.8-11.2,6.5-17.5,8
		c-4.2,1-7.7-1.5-9.4-3.1c-1,0.7-1.9,1.3-2.8,1.9c-1.1,0.7-2,1.4-2.8,1.9c-1.2,0.8-2.3,1.5-3.3,2.1
		C573.9,718.4,571.8,719.7,571.7,720.2L571.7,720.2z"/>
	<path class="st0" d="M644.6,636.9c0,0,14.5,47,16.8,55.8s4.4,23,9.3,31.6c4.9,8.6,9,4.9,8.8-4.4c-0.3-9.3-9.3-24.6-10.8-28.2
		s-6.5-59.4-6.5-59.4S652.4,636.9,644.6,636.9z"/>
	<path class="st6" d="M675.9,729.9c-1.5,0-3.5-1.1-5.9-5.2c-3.7-6.4-5.8-15.8-7.6-24c-0.6-2.8-1.2-5.5-1.8-7.8
		c-2.3-8.7-16.6-55.3-16.8-55.8c-0.1-0.4,0.1-0.9,0.5-1l0.2,0c7.5,0,17.1-4.5,17.2-4.5c0.4-0.2,0.9,0,1,0.4c0,0.1,0.1,0.2,0.1,0.3
		c1.4,15.5,5.2,56.3,6.4,59.2c0.3,0.7,1,2,1.8,3.6c3.1,6.1,8.9,17.4,9.1,24.9c0.2,5.5-1.2,9.2-3.6,9.9
		C676.5,729.9,676.2,729.9,675.9,729.9z M645.7,637.7c2.1,6.8,14.4,46.9,16.5,54.9c0.6,2.3,1.2,5,1.8,7.8c1.8,8.1,3.8,17.3,7.4,23.5
		c1.8,3.1,3.6,4.8,4.9,4.4c1.3-0.4,2.6-3.1,2.4-8.4c-0.2-7.2-5.9-18.3-9-24.2c-0.8-1.6-1.5-2.9-1.8-3.7c-1.5-3.5-5.6-49.3-6.4-58.6
		C658.9,634.6,651.9,637.4,645.7,637.7z"/>
	<path class="st6" d="M672.1,712.1c-2.6,0.3-5.3-2.2-7.2-4.7c1.2,5.9,3.2,11.5,5.9,16.9c4.9,8.5,9,4.9,8.8-4.4
		c-0.4-4.2-1.4-8.3-3.2-12.1C675.6,710,674.4,711.9,672.1,712.1z"/>
	<path class="st6" d="M676,729.9c-1.5,0-3.5-1.1-5.9-5.2c-2.8-5.4-4.8-11.2-6-17.1c-0.1-0.4,0.2-0.8,0.6-0.9
		c0.3-0.1,0.6,0.1,0.8,0.3c1.7,2.2,4.2,4.7,6.5,4.4c1.6-0.2,2.8-1.4,3.7-3.9c0.1-0.3,0.4-0.5,0.7-0.5c0.3,0,0.6,0.2,0.8,0.5
		c1.8,3.9,2.8,8.1,3.2,12.4c0.2,5.6-1.2,9.3-3.6,10C676.5,729.8,676.3,729.9,676,729.9z M666.3,710.2c1.2,4.7,2.9,9.3,5.2,13.7
		c1.8,3.1,3.6,4.7,4.8,4.3c1.3-0.4,2.6-3.1,2.4-8.3c-0.3-3.5-1.1-6.9-2.4-10.1c-0.8,1.7-2.4,2.9-4.2,3.2
		C670.3,713.1,668.4,712.2,666.3,710.2z"/>
	<path class="st0" d="M634.2,324.9c0,0,0.7,14-2,18.2c-2.6,4.2-3.9,5.5-9.5,3.2c-5.6-2.3-14-9.5-19.5-7.1s-46.8,63-50,68.2
		s-3.6,12.3,2.6,12.3s45.8-46.8,45.8-46.8s1.6,18.8,4.2,27.9c2.6,9.1,7.2,13.6,4.9,23.7c-2.3,10-20.5,23.7-24.7,52.9
		c-4.2,29.2,9.1,128.9,10.1,138c1,9.1,2,18.8,2,18.8s13,8.1,36.3,7.8c23.3-0.3,30.4-7.2,30.4-7.2s10.1-96.4,10.4-98.4
		c0.3-2,5.6-47.3,3-68c-2.6-20.8-13-39.5-13.7-44.3s4.9-15.3,5.2-20.1c0.3-4.9,4.5-14,4.5-14s5.8,35.4,9.5,38.6s14,5.5,14-5.9
		s-8.1-54.5-11-62.3c-2.9-7.8-6.8-13.3-14.9-13c-8.1,0.3-10.1,1.6-15.6,1.6s-1.6-26.3-1.6-26.3C648.6,327.2,640.8,328,634.2,324.9z"
		/>
	<path class="st6" d="M633.1,642.9c-22.4,0-34.8-7.6-35.4-7.9c-0.2-0.1-0.3-0.3-0.4-0.6c0,0-1-9.7-2-18.8c-0.1-1.1-0.4-3.6-0.8-7
		c-3.2-26-12.9-105.3-9.2-131.1c2.7-19.2,11.5-31.7,17.8-40.9c3.4-4.9,6.1-8.8,6.9-12.1c1.5-6.9-0.1-11-2.3-16.1
		c-1-2.3-1.9-4.7-2.6-7.1c-2.2-7.5-3.6-21.2-4.1-26.2c-7.5,8.8-39.2,45.6-45.2,45.6c-2,0.2-3.9-0.8-4.9-2.6c-1.7-3.1-0.4-7.7,1.6-11
		c1.7-2.8,44.3-66,50.4-68.5c4.2-1.8,9.8,1.4,14.7,4.3c1.8,1.1,3.6,2,5.4,2.9c5.1,2.1,6,1,8.5-2.9s1.8-17.6,1.8-17.7
		c0-0.3,0.1-0.5,0.3-0.7s0.5-0.2,0.8-0.1c6.4,2.9,13.8,2.2,19.5-1.9c0.3-0.3,0.8-0.2,1.1,0.2c0.1,0.2,0.2,0.4,0.1,0.6
		c-0.9,5.9-2.6,21.9,0.1,25c0.2,0.2,0.4,0.4,0.7,0.4c2.2,0,4.4-0.2,6.5-0.6c3-0.5,6-0.8,9-1c9.2-0.3,13.1,6.6,15.7,13.5
		c2.8,7.5,11.1,50.8,11.1,62.6c0,5.5-2.4,7.8-4.3,8.6c-3.5,1.6-8.4,0.1-10.9-2.2c-3.3-2.9-7.8-27.8-9.3-36.5
		c-1.3,3-3.2,8.1-3.4,11.3c-0.1,2.2-1.3,5.4-2.5,8.8c-1.4,4-3.1,8.6-2.7,11.1c0.2,1.5,1.4,4.5,3,8.4c3.5,8.6,8.9,21.7,10.7,35.9
		c2.6,20.8-2.5,65.7-3,68.3c-0.3,1.5-6.9,65-10.4,98.3c0,0.2-0.1,0.4-0.2,0.5c-0.3,0.3-7.5,7.1-30.9,7.4
		C634,642.9,633.5,642.9,633.1,642.9z M598.8,633.9c2.2,1.2,14.8,7.8,35.5,7.5c20.5-0.3,28.3-5.7,29.6-6.8
		c0.7-7.1,10-96.2,10.4-98.1c0.4-2.5,5.5-47.2,3-67.8c-1.8-14-7-27-10.5-35.5c-1.7-4.1-2.9-7.1-3.1-8.8c-0.4-2.9,1.2-7.5,2.8-11.9
		c1.2-3.3,2.3-6.4,2.4-8.4c0.3-5,4.4-13.9,4.6-14.2c0.2-0.4,0.7-0.6,1-0.4c0.2,0.1,0.4,0.3,0.4,0.6c2.3,14.1,6.7,35.9,9.2,38.2
		c1.9,1.7,6.2,3.3,9.2,1.9c2.3-1,3.4-3.4,3.4-7.2c0-11.8-8.2-54.6-11-62c-3.5-9.1-7.5-12.7-14.2-12.5c-3,0.1-5.9,0.4-8.8,0.9
		c-2.2,0.4-4.5,0.6-6.8,0.6c-0.7,0-1.4-0.4-1.9-0.9c-3.2-3.6-1.4-19-0.7-24.5c-5.6,3.4-12.3,3.9-18.4,1.6c0.1,3.6,0.1,13.7-2.1,17.4
		c-2.7,4.4-4.5,6-10.4,3.6c-1.9-0.9-3.8-1.9-5.6-3c-4.6-2.6-9.7-5.7-13.2-4.2c-5.1,2.1-45.5,61.3-49.6,67.9
		c-2.1,3.3-2.8,7.3-1.6,9.4c0.7,1.2,2.1,1.9,3.5,1.8c4.2,0,30-28.5,45.2-46.5c0.3-0.3,0.8-0.4,1.1-0.1c0.2,0.1,0.3,0.3,0.3,0.5
		c0,0.2,1.6,18.9,4.2,27.8c0.7,2.4,1.6,4.7,2.5,7c2.2,5.2,4,9.7,2.3,17.1c-0.8,3.7-3.6,7.6-7.1,12.7c-6.3,9-14.9,21.4-17.6,40.2
		c-3.6,25.6,6,104.7,9.2,130.7c0.4,3.5,0.7,6,0.8,7.1C597.8,623.4,598.6,632,598.8,633.9z"/>
	<path class="st1" d="M664.8,635c0,0,10.1-96.4,10.4-98.4c0.3-2,5.6-47.3,3-68c-2.6-20.8-13-39.5-13.7-44.3
		c-0.6-4.4,3.9-13.4,5-18.6c-35.6,6.5-54.7,0.5-63.2-4c2.6,8.6,6.8,13.2,4.6,22.9c-2.3,10.1-20.5,23.7-24.7,52.9s9.1,128.9,10.1,138
		c1,9.1,2,18.8,2,18.8s13,8.1,36.3,7.8C657.9,641.8,664.8,635,664.8,635z"/>
	<path class="st6" d="M633.2,642.9c-22.4,0-34.8-7.6-35.4-7.9c-0.2-0.1-0.3-0.3-0.4-0.6c0,0-1-9.7-2-18.8c-0.1-1.1-0.4-3.5-0.8-7
		c-3.2-26.1-12.9-105.4-9.2-131.2c2.7-19.2,11.4-31.7,17.8-40.8c3.4-4.9,6.1-8.8,6.9-12.2c1.5-6.8-0.1-10.9-2.2-16.1
		c-0.8-2-1.7-4-2.4-6.4c-0.1-0.4,0.1-0.9,0.5-1c0.2-0.1,0.4,0,0.6,0.1c8.1,4.2,27,10.4,62.6,3.9c0.3,0,0.5,0,0.7,0.2
		c0.2,0.2,0.3,0.5,0.2,0.7c-0.6,2.4-1.3,4.8-2.2,7.1c-1.4,4-3.1,8.6-2.7,11.2c0.2,1.5,1.4,4.5,3,8.4c3.5,8.6,8.9,21.7,10.7,35.9
		c2.6,20.8-2.5,65.7-3,68.3c-0.3,1.5-6.9,65-10.4,98.3c0,0.2-0.1,0.3-0.2,0.5c-0.3,0.3-7.4,7.1-30.8,7.4
		C634.1,642.9,633.7,642.9,633.2,642.9z M599,633.9c2.1,1.2,14.8,7.8,35.5,7.5c20.5-0.3,28.2-5.7,29.5-6.8c0.7-7,10-96.2,10.4-98.1
		c0.4-2.5,5.5-47.2,3-67.8c-1.8-14-7-27-10.5-35.5c-1.7-4.1-2.9-7.1-3.1-8.8c-0.4-3,1.2-7.5,2.8-11.9c0.7-2.1,1.5-4.1,1.9-5.8
		c-33.1,5.8-51.8,0.7-60.8-3.5c0.6,1.6,1.2,3.1,1.8,4.5c2.1,5.2,4,9.7,2.3,17c-0.8,3.7-3.6,7.7-7.1,12.7c-6.3,9-14.9,21.4-17.5,40.2
		c-3.6,25.6,6,104.7,9.2,130.7c0.4,3.5,0.7,5.9,0.8,7C597.9,623.4,598.8,632,599,633.9z"/>
	<path class="st6" d="M597.3,625.7c9.1-4.2,12.4-17.2,19.8-9c7.4,8.2,13.1,18.7,21.8,10.3c8.7-8.4,6.5-15,14.2-13.1
		c6.5,1.6,9,15.5,12.4,14.8c0.6-5.6,1.6-14.5,2.6-24.6l-0.8,1.4c-4.4,7.5-6.5-11.2-14.2-13.1s-5.5,4.7-14.2,13.1
		s-14.2-1.9-21.8-10.3c-7.5-8.4-10.9,5.6-20.7,9.4c-0.5,0.2-1,0.3-1.5,0.4c0.7,5.4,1.1,9.2,1.3,10.6c0.4,4,0.8,8,1.2,11.3
		C597.4,626.5,597.4,626.1,597.3,625.7z"/>
	<path class="st6" d="M632.7,630.9c-0.1,0-0.3,0-0.4,0c-4.5-0.2-8.2-4.8-12.2-9.6c-1.1-1.4-2.3-2.8-3.5-4.1c-1.4-1.6-2.7-2.4-4-2.4
		c-2.1,0-4.1,2.1-6.4,4.7c-2.2,2.4-4.7,5-8,6.7c0,0.2,0,0.5,0,0.7c0,0.4-0.3,0.7-0.8,0.8c-0.4,0-0.8-0.3-0.8-0.7
		c-0.3-3.3-0.8-7.4-1.2-11.3c-0.1-1.2-0.4-3.7-0.9-7.4l-0.4-3.2c0-0.4,0.2-0.8,0.7-0.9c0.5-0.1,0.9-0.2,1.3-0.3
		c3.6-1.4,6.4-4.3,8.8-6.9c2.6-2.8,4.8-5.1,7.6-5.1h0.1c1.7,0,3.4,1,5.1,2.9c1.2,1.4,2.4,2.8,3.5,4.2c3.7,4.5,7.2,8.8,11,9
		c1.9,0.1,3.9-0.8,6.1-2.9c2.6-2.5,4.8-5.5,6.5-8.7c2-3.5,3.3-5.9,8.5-4.6c4,1,6.5,5.9,8.6,9.9c1.1,2.2,2.5,4.9,3.4,5
		c0.2-0.1,0.6-0.1,1.3-1.4l0.8-1.4c0.2-0.4,0.7-0.5,1.1-0.3c0.3,0.2,0.4,0.4,0.4,0.8c-0.8,8-1.6,15.2-2.2,20.6l-0.4,4
		c0,0.3-0.3,0.6-0.6,0.7c-2.1,0.4-3.5-2.3-5.2-5.8c-1.9-3.7-4.2-8.3-7.5-9.1c-4-1-4.8,0.5-6.8,3.9c-1.8,3.3-4,6.4-6.7,9
		C637.2,629.8,634.9,630.9,632.7,630.9L632.7,630.9z M612.6,613.3L612.6,613.3c1.7,0,3.4,1,5.2,2.9c1.2,1.3,2.4,2.8,3.5,4.1
		c3.8,4.5,7.3,8.8,11.1,9c1.9,0.1,3.9-0.8,6-2.9c2.6-2.5,4.8-5.4,6.4-8.7c2-3.6,3.3-5.9,8.5-4.7c4,1,6.5,5.9,8.5,9.9
		c1,1.9,2.1,4.1,3,4.8l0.3-3.2c0.5-4.7,1.2-10.8,1.8-17.5c-0.4,0.5-1.1,0.8-1.8,0.8c-1.8-0.1-3.1-2.6-4.8-5.8
		c-1.9-3.7-4.2-8.3-7.5-9.1c-4-1-4.8,0.4-6.7,3.9c-1.8,3.4-4,6.4-6.8,9c-2.5,2.4-4.9,3.4-7.3,3.3c-4.4-0.3-8.2-4.8-12.1-9.6
		c-1.1-1.4-2.3-2.8-3.5-4.1c-1.4-1.6-2.7-2.4-3.9-2.4h0c-2,0-4.1,2.2-6.4,4.6c-2.5,2.7-5.4,5.8-9.4,7.3c-0.3,0.1-0.6,0.2-0.9,0.3
		l0.3,2.5c0.5,3.7,0.8,6.3,0.9,7.5c0.3,3.1,0.7,6.2,1,9.1c2.7-1.7,5-3.7,7.1-6.1C607.6,615.6,609.8,613.3,612.6,613.3L612.6,613.3z"
		/>
	<path class="st6" d="M641.1,587.8c-0.4,0-0.7-0.2-0.8-0.6c-8.7-32.3-13.2-75.5-13.2-75.9s0.3-0.8,0.7-0.9c0.4,0,0.8,0.3,0.9,0.7v0
		c0,0.4,4.5,43.5,13.2,75.6c0.1,0.4-0.1,0.9-0.6,1L641.1,587.8L641.1,587.8z"/>
	<path class="st6" d="M625.3,529.7c-0.3,0-0.6-0.2-0.7-0.5c-2.7-6.2-5.2-31.8-5.3-32.9c0-0.4,0.3-0.8,0.7-0.9c0.4,0,0.8,0.3,0.9,0.7
		c0,0.3,2.7,26.4,5.2,32.4c0.2,0.4,0,0.9-0.4,1C625.5,529.7,625.4,529.7,625.3,529.7z"/>
	<path class="st1" d="M593.4,349.8c0,0,14.5,16.4,44.2,20.4s48.9-9.5,48.9-9.5s5.1,20.2,10.3,28.9s5.4,9.1,3,11.2
		c-2.3,2.1-7,1.9-8.9,4.9c-1.9,3-2.1,6.8-7,7c-4.9,0.2-9.1-2.3-12.2-1.2s-3,4.5-9.4,4.9c-6.3,0.5-14.5-4.4-17.4-2.6
		c-2.9,1.9-4.7,4.9-10.1,4c-5.3-1-6.8-7.2-11.2-7.2s-7,4.7-11.2,3.7s-5.4-8.4-9.3-8.9c-4-0.5-7.5,3.7-11.2,2.1
		c-3.7-1.6-4-8.2-8.2-10.5c-4.2-2.3-8.7-1-11.2-2.6s-5.4-8.2-5.4-8.2L593.4,349.8z"/>
	<path class="st6" d="M636.9,418.9c-0.7,0-1.3-0.1-2-0.2c-2.9-0.5-4.8-2.5-6.4-4.2c-1.5-1.6-2.8-3-4.7-3c-1.8,0-3.3,0.9-4.9,1.9
		c-1.9,1.2-3.9,2.4-6.5,1.8c-2.4-0.6-3.8-2.8-5.2-4.9c-1.2-1.9-2.4-3.7-4-3.9c-1.7,0-3.3,0.4-4.7,1.2c-2.1,0.9-4.3,1.9-6.7,0.9
		c-2.1-0.9-3.2-3.2-4.3-5.3c-1-2-2.1-4.2-4-5.2c-2-1-4.2-1.5-6.4-1.5c-1.7,0-3.4-0.3-4.9-1.1c-2.8-1.7-5.5-8.3-5.7-8.5
		c-0.1-0.2-0.1-0.5,0.1-0.8l26.2-36.5c0.1-0.2,0.4-0.3,0.6-0.3s0.5,0.1,0.6,0.3c0.1,0.2,14.7,16.2,43.7,20.1
		c29,3.9,48.2-9.2,48.4-9.3c0.4-0.2,0.8-0.2,1.1,0.2c0,0.1,0.1,0.2,0.1,0.2c0,0.2,5.2,20.2,10.2,28.7c5.2,8.7,5.7,9.7,2.9,12.2
		c-1.2,1-2.6,1.6-4.2,2c-1.9,0.6-3.7,1.2-4.6,2.7c-0.4,0.7-0.8,1.4-1.1,2.1c-1.2,2.5-2.3,5.1-6.6,5.2c-2.2,0-4.4-0.3-6.5-0.9
		c-2.1-0.5-4-0.9-5.4-0.4c-0.9,0.4-1.7,1-2.3,1.7c-1.9,2.1-4.5,3.3-7.3,3.3c-3.2,0.2-6.7-0.8-9.9-1.7c-3-0.9-5.9-1.7-7.1-1
		c-0.6,0.4-1.2,0.9-1.8,1.4C642,417.3,640.1,418.9,636.9,418.9z M623.8,409.9c2.6,0,4.2,1.8,5.9,3.5c1.5,1.6,3.1,3.3,5.5,3.7
		c3.8,0.7,5.5-0.8,7.6-2.4c0.6-0.5,1.3-1,1.9-1.5c1.8-1.2,4.9-0.3,8.4,0.8c3,0.9,6.4,1.9,9.3,1.7c2.4,0,4.7-1,6.3-2.8
		c0.8-0.9,1.7-1.6,2.8-2c1.9-0.7,4-0.2,6.3,0.3c2,0.5,4,0.8,6.1,0.8c3.3-0.1,4.1-2,5.2-4.3c0.3-0.8,0.7-1.6,1.2-2.3
		c1.2-2,3.5-2.7,5.5-3.4c1.3-0.3,2.5-0.9,3.6-1.7c1.8-1.7,1.9-1.7-3.2-10.2c-4.5-7.6-9-23.7-10.1-28c-4.2,2.6-22.6,12.5-48.5,9
		c-26.1-3.5-40.8-16.7-44-19.9l-25.4,35.4c0.9,2,3.1,6.3,4.9,7.4c1.3,0.6,2.7,0.9,4.2,0.9c2.5,0,4.9,0.6,7.1,1.7
		c2.3,1.3,3.5,3.8,4.6,5.9c1,2,1.9,3.9,3.5,4.6c1.7,0.8,3.5,0,5.5-0.9c1.8-0.8,3.6-1.5,5.6-1.3c2.4,0.3,3.8,2.5,5.2,4.6
		c1.2,1.9,2.5,3.8,4.3,4.3c1.9,0.5,3.5-0.5,5.3-1.6C619.7,410.7,621.7,410,623.8,409.9z"/>
	<path class="st6" d="M697,389.8c-2,0.7-4.1,1.3-5.2,3.2c-1.9,3-2.1,6.8-7,7c-4.9,0.2-9.1-2.3-12.2-1.2s-3,4.4-9.4,4.9
		s-14.5-4.5-17.4-2.6s-4.7,4.9-10.1,4s-6.8-7.3-11.2-7.3s-7,4.7-11.2,3.7s-5.4-8.4-9.3-8.9c-4-0.5-7.5,3.7-11.2,2.1s-4-8.2-8.2-10.5
		s-8.7-0.9-11.2-2.6c-0.6-0.5-1.2-1-1.7-1.7l-4.5,6.3c0,0,2.8,6.5,5.4,8.2c2.6,1.6,7,0.2,11.2,2.6c4.2,2.4,4.4,8.9,8.2,10.5
		c3.7,1.6,7.3-2.6,11.2-2.1s5.1,7.9,9.3,8.9s6.8-3.7,11.2-3.7c4.4,0,5.9,6.3,11.2,7.2s7.2-2.1,10.1-4s11,3,17.4,2.6
		c6.3-0.5,6.3-3.7,9.4-4.9s7.2,1.4,12.2,1.2c4.9-0.2,5.2-4,7-7s6.5-2.8,8.9-4.9C702.2,398.8,701.9,398.2,697,389.8z"/>
	<path class="st6" d="M636.9,418.9c-0.7,0-1.4-0.1-2-0.2c-3-0.5-4.8-2.5-6.4-4.2c-1.5-1.6-2.8-3-4.7-3c-1.8,0-3.3,0.9-4.9,1.9
		c-1.9,1.2-3.9,2.4-6.5,1.8c-2.4-0.6-3.8-2.8-5.2-4.9c-1.2-1.9-2.4-3.7-4-3.9c-1.7,0-3.3,0.4-4.8,1.2c-2.1,0.9-4.3,1.9-6.7,0.9
		c-2.1-0.9-3.2-3.1-4.3-5.3c-1-2.1-2.1-4.2-4-5.2c-2-1-4.2-1.5-6.4-1.5c-1.7,0-3.4-0.3-4.9-1.1c-2.8-1.8-5.5-8.3-5.7-8.5
		c-0.1-0.2-0.1-0.5,0.1-0.8l4.5-6.3c0.2-0.2,0.4-0.3,0.6-0.3c0.2,0,0.5,0.1,0.6,0.3c0.4,0.6,0.9,1.1,1.5,1.5
		c1.3,0.6,2.7,0.9,4.1,0.9c2.5,0,4.9,0.6,7,1.7c2.3,1.3,3.5,3.8,4.6,5.9c1,2,1.9,3.9,3.5,4.6c1.7,0.8,3.5,0,5.5-0.9
		c1.8-0.8,3.6-1.6,5.6-1.3c2.4,0.3,3.8,2.5,5.2,4.6c1.2,1.9,2.5,3.8,4.3,4.3c1.9,0.5,3.5-0.5,5.3-1.6c1.7-1.2,3.7-2,5.8-2.1
		c2.6,0,4.2,1.8,5.9,3.5c1.5,1.6,3.1,3.3,5.5,3.7c3.8,0.7,5.5-0.8,7.6-2.4c0.6-0.5,1.2-1,1.9-1.4c1.8-1.2,4.9-0.3,8.4,0.8
		c3,0.9,6.4,1.9,9.3,1.7c2.4,0,4.7-1,6.3-2.8c0.8-0.9,1.7-1.6,2.8-2c1.9-0.7,4-0.2,6.3,0.3c2,0.5,4,0.8,6.1,0.8
		c3.3-0.2,4.1-2,5.2-4.3c0.3-0.8,0.8-1.6,1.2-2.3c1.2-2,3.5-2.8,5.4-3.4l0.2-0.1c0.3-0.1,0.7,0,0.9,0.3c4.9,8.2,5.6,9.5,2.7,12.1
		c-1.2,0.9-2.6,1.6-4.1,2c-1.9,0.6-3.7,1.2-4.6,2.7c-0.4,0.7-0.8,1.4-1.1,2.1c-1.2,2.5-2.3,5-6.5,5.2c-2.2,0-4.4-0.2-6.5-0.8
		c-2.1-0.5-4-0.9-5.4-0.4c-0.9,0.4-1.7,1-2.3,1.7c-1.9,2.1-4.5,3.2-7.3,3.3c-3.2,0.2-6.8-0.8-9.9-1.7c-3-0.9-5.9-1.7-7.1-1
		c-0.6,0.4-1.1,0.8-1.7,1.3C642.1,417.4,640.2,418.9,636.9,418.9z M623.8,409.9c2.5,0,4.2,1.8,5.8,3.5c1.5,1.6,3.1,3.3,5.5,3.8
		c3.8,0.7,5.7-0.9,7.7-2.5c0.6-0.5,1.2-1,1.8-1.4c1.8-1.2,4.8-0.3,8.4,0.8c3,0.9,6.5,1.9,9.3,1.7c2.4,0,4.7-1,6.3-2.8
		c0.8-0.9,1.7-1.6,2.8-2c1.9-0.7,4-0.2,6.3,0.3c2,0.5,4,0.8,6.1,0.8c3.3-0.2,4.1-2,5.2-4.3c0.3-0.8,0.8-1.6,1.2-2.3
		c1.2-2,3.5-2.7,5.5-3.4c1.3-0.3,2.5-0.9,3.6-1.7c1.8-1.6,1.9-1.7-2.7-9.6c-1.7,0.6-3.3,1.2-4.2,2.6c-0.4,0.7-0.8,1.4-1.1,2.2
		c-1.1,2.5-2.3,5-6.6,5.2c-2.2,0-4.4-0.2-6.5-0.8c-2.1-0.5-4-0.9-5.4-0.4c-0.9,0.4-1.7,1-2.3,1.7c-1.9,2.1-4.5,3.2-7.3,3.3
		c-3.2,0.2-6.7-0.8-9.9-1.7c-3-0.9-5.9-1.8-7.1-1c-0.6,0.4-1.2,0.9-1.8,1.3c-2,1.7-4.4,3.5-8.8,2.8c-2.9-0.5-4.8-2.5-6.4-4.2
		c-1.5-1.6-2.8-3-4.7-3c-1.8,0-3.3,0.9-4.9,1.9c-1.9,1.2-3.9,2.4-6.5,1.8c-2.4-0.6-3.8-2.8-5.2-4.9c-1.2-1.9-2.4-3.7-4-3.9
		c-1.6-0.2-3.1,0.5-4.8,1.2c-2.1,0.9-4.3,1.9-6.7,0.9c-2.1-0.9-3.2-3.2-4.3-5.3c-1-2.1-2.1-4.2-4-5.2c-2-1-4.2-1.5-6.4-1.5
		c-1.7,0-3.4-0.4-4.9-1.1c-0.4-0.3-0.8-0.6-1.2-1l-3.6,5.1c0.9,2,3.1,6.3,4.9,7.4c1.3,0.6,2.7,0.9,4.1,0.9c2.5,0,4.9,0.6,7.1,1.7
		c2.3,1.3,3.5,3.8,4.6,5.9c1,2,1.9,3.9,3.5,4.5c1.7,0.8,3.5,0,5.4-0.9c1.8-0.8,3.6-1.6,5.6-1.3c2.4,0.3,3.8,2.5,5.2,4.6
		c1.2,1.9,2.5,3.8,4.2,4.3c1.9,0.5,3.5-0.5,5.3-1.6C619.7,410.8,621.7,410.1,623.8,409.9L623.8,409.9z"/>
	<path class="st0" d="M692.4,416.8c0,0-17.8-11-28.9-17.9c-11-6.8-16.2-17.2-20.1-22.4c-3.9-5.2-3.2-6.8-9.1-6.2
		c-5.8,0.6-16.2,10.7-16.2,12.3s5.5-1.9,5.5-1.9s-4.5,4.5-3.6,6.2c1,1.6,5.8-1,5.8-1s-2.3,3.6-1,4.5c1.3,1,4.5-1.6,4.5-1.6
		s-1,2.9,0.7,2.9s8.1-4.2,8.1-4.2s2.6,5.5,5.2,7.5c1.6,1.2,3.5,1.9,5.5,1.9c0,0,17.8,23.4,24.4,30.2c6.5,6.8,21.7,12,25,6.2
		s-1.2-14.8-1.2-14.8"/>
	<path class="st6" d="M692.5,436.8c-6.1,0-15.2-4-19.9-8.9c-6.1-6.4-22.1-27.3-24.2-30c-2-0.2-4-0.9-5.6-2.1c-2.1-1.6-4.2-5.3-5-7
		c-2.1,1.3-6.3,3.9-7.8,3.9c-0.5,0-1-0.2-1.3-0.7c-0.3-0.4-0.4-0.9-0.4-1.4c-1.2,0.7-2.9,1.3-4,0.5c-1-0.8-0.8-2.2-0.3-3.5
		c-1.8,0.7-3.9,1.1-4.8-0.3c-0.6-1,0-2.5,0.9-3.9c-0.7,0.4-1.6,0.5-2.4,0.3c-0.4-0.2-0.6-0.6-0.6-1c0-2.3,11-12.5,17-13.1
		c4.8-0.5,5.7,0.5,7.8,3.6c0.5,0.8,1.1,1.7,2,2.8c0.8,1.1,1.7,2.4,2.7,3.9c3.7,5.5,8.7,13.1,17.3,18.4c11,6.8,28.9,17.9,28.9,17.9
		l-0.8,1.3c0,0-17.8-11-28.9-17.9c-8.9-5.5-14-13.2-17.8-18.8c-1-1.5-1.8-2.7-2.6-3.8c-0.8-1.1-1.5-2.1-2-2.9
		c-1.9-2.9-2.2-3.4-6.3-2.9c-5.1,0.6-13.6,8.6-15.3,11.1c1.4-0.6,2.8-1.3,4-2.1c0.4-0.2,0.8-0.1,1.1,0.2c0.2,0.3,0.2,0.7-0.1,1
		c-2.1,2.1-3.8,4.6-3.5,5.2c0.3,0.5,2.7-0.1,4.8-1.3c0.4-0.2,0.9-0.1,1.1,0.3c0.1,0.2,0.1,0.5,0,0.8c-1,1.6-1.5,3.2-1.2,3.5
		c0.5,0.4,2.3-0.6,3.6-1.6c0.3-0.3,0.8-0.2,1.1,0.1c0.2,0.2,0.2,0.5,0.1,0.7c-0.2,0.6-0.3,1.2-0.2,1.9c0.9,0,4.7-2.1,7.8-4.1
		c0.4-0.2,0.8-0.1,1.1,0.2l0,0.1c0,0,2.5,5.4,5,7.2c1.5,1.1,3.2,1.7,5.1,1.8c0.2,0,0.5,0.1,0.6,0.3c0.2,0.2,17.9,23.4,24.3,30.1
		c4.9,5.1,14.5,9.1,20.1,8.4c1.5,0,2.8-0.8,3.7-2c3-5.4-1.2-13.9-1.2-14c-0.2-0.4,0-0.9,0.4-1c0.4-0.2,0.8,0,1,0.3
		c0.2,0.4,4.6,9.4,1.2,15.5c-1,1.7-2.8,2.7-4.8,2.8C693.6,436.7,693.1,436.8,692.5,436.8z"/>
	<path class="st6" d="M629.4,389.7c-0.4,0-0.8-0.4-0.8-0.8c0-0.2,0-0.3,0.2-0.5c0.2-0.3,5.7-7.7,9.5-8.7c0.4-0.1,0.8,0.2,1,0.6
		c0.1,0.4-0.1,0.8-0.5,0.9c-2.7,0.7-7.2,6.1-8.7,8.1C629.9,389.6,629.6,389.7,629.4,389.7z"/>
	<path class="st6" d="M625.8,386.8c-0.2,0-0.4-0.1-0.5-0.2c-0.3-0.3-0.3-0.8-0.1-1.1l0,0c0.2-0.3,6-6.6,10.6-9.2
		c0.4-0.2,0.9-0.1,1.1,0.3c0.2,0.4,0.1,0.9-0.3,1.1c-4.4,2.5-10.1,8.9-10.2,8.9C626.2,386.7,626,386.8,625.8,386.8z"/>
	<path class="st6" d="M623.5,381.6c-0.4,0-0.8-0.4-0.8-0.8c0-0.2,0.1-0.4,0.2-0.6c1.2-1.1,7.1-6.7,9.5-7c0.4-0.1,0.8,0.2,0.9,0.7
		c0.1,0.4-0.2,0.8-0.7,0.9c-1.5,0.2-6.1,4.2-8.7,6.6C623.9,381.5,623.7,381.6,623.5,381.6z"/>
	
		<rect x="575.5" y="355.2" transform="matrix(0.9973 -7.300232e-02 7.300232e-02 0.9973 -25.9245 43.7435)" class="st6" width="19.8" height="42.7"/>
	<path class="st6" d="M577.2,399.3c-0.4,0-0.8-0.3-0.8-0.7l-3.1-42.6c0-0.4,0.3-0.8,0.7-0.8l19.8-1.5c0.4,0,0.8,0.3,0.8,0.7v0
		l3.1,42.6c0,0.4-0.3,0.8-0.7,0.9L577.2,399.3L577.2,399.3z M574.9,356.6l3,41l18.2-1.3l-3-41L574.9,356.6z"/>
	<path class="st0" d="M572.3,391.5c0,0-1.9-22.8,1.4-24.4s20.3-6.3,20.3-4.4c0,1.9-1.6,3.3-3.5,4.1c-3.2,0.9-6.6,1.7-9.9,2.2
		l-0.8,3.5c0,0,8.2-1.4,9.6-1.4c1.4,0,7.7,2.2,7.4,4.4c-0.3,2.2-1.1,1.6-1.1,1.6c0.8,0.8,1.3,1.9,1.4,3c0,1.6-0.8,1.6-0.8,1.6
		c0.5,1.3-0.2,2.7-1.5,3.2l0,0c-0.2,0.1-0.4,0.1-0.7,0.1c-1.9,0.1-3.4-2.9-5.3-1.7c-2.1,1.4-2.7,1.1-2.7,1.1c-1.2,3.1-2.5,6.1-4.1,9
		c-1.3,2.1-3.2,3.8-5.5,4.9c0,0-13.2,20.3-18.6,24.4c-5.5,4.1-14.2-0.8-10.9-10.1C550.2,403.5,572.3,391.5,572.3,391.5z"/>
	<path class="st6" d="M553.4,425.2c-1.7,0-3.4-0.5-4.7-1.6c-3.2-2.4-4.2-6.5-2.5-11c3.1-8.9,22.1-19.7,25.4-21.5
		c-0.5-6-1.5-23,1.8-24.6c2.8-1.4,18.5-6.1,20.9-4.6c0.3,0.2,0.5,0.6,0.5,1c0,2-1.4,3.8-4,4.9c-3.1,0.9-6.3,1.6-9.5,2.2l-0.4,1.9
		c2.4-0.4,7.4-1.2,8.5-1.2c1.3,0,5.8,1.5,7.5,3.4c0.5,0.5,0.8,1.2,0.7,1.9c0,0.6-0.2,1.3-0.6,1.8c0.5,0.8,0.8,1.7,0.9,2.6
		c0.1,0.8-0.2,1.5-0.7,2c0.2,1.5-0.7,3-2.1,3.5c-0.3,0.1-0.6,0.2-0.9,0.2c-1.1,0-2.1-0.5-2.9-1.2c-1-0.8-1.5-1-2.1-0.7
		c-0.8,0.5-1.6,1-2.5,1.2c-1.2,3-2.5,5.9-4,8.7c-1.4,2.2-3.3,4-5.6,5.2c-1.4,2.1-13.4,20.4-18.7,24.4
		C556.9,424.6,555.2,425.2,553.4,425.2z M592.7,363.1c-3.3,0-15.5,3.2-18.7,4.8c-1.7,0.9-1.8,12.9-0.9,23.6c0,0.3-0.1,0.6-0.4,0.8
		c-0.2,0.1-21.9,11.9-25.1,20.9c-1.4,3.9-0.6,7.3,2,9.2c2.3,1.7,5.4,1.7,7.7-0.1c5.3-4,18.3-24,18.5-24.2c0.1-0.1,0.2-0.2,0.3-0.3
		c2.1-1,3.9-2.7,5.2-4.6c1.5-2.9,2.9-5.9,4-8.9c0.1-0.2,0.2-0.4,0.4-0.4c0.1-0.1,0.3-0.1,0.5,0c0.8-0.2,1.5-0.5,2.1-1
		c1.5-1,2.9,0,3.8,0.7c0.7,0.5,1.3,1,1.8,0.9c0.9-0.1,1.6-0.9,1.6-1.8c0-0.1,0-0.3-0.1-0.5c-0.2-0.4,0.1-0.9,0.5-1
		c0.1,0,0.2,0,0.3,0c-0.1,0,0-0.2,0-0.8c-0.1-0.9-0.5-1.8-1.1-2.5c-0.3-0.3-0.3-0.8,0-1.1c0.2-0.2,0.4-0.3,0.7-0.3
		c0.1-0.3,0.2-0.6,0.2-0.9c0-0.2-0.1-0.5-0.3-0.6c-1.3-1.5-5.4-2.8-6.3-2.8c-1.1,0-7.2,1-9.5,1.4c-0.3,0-0.5,0-0.7-0.2
		s-0.2-0.5-0.2-0.7l0.8-3.5c0.1-0.3,0.3-0.5,0.6-0.6c3.3-0.5,6.6-1.3,9.8-2.2c1-0.4,2.7-1.4,3-3C593,363.1,592.9,363.1,592.7,363.1z
		"/>
	<path class="st6" d="M595.6,378.1c-0.2,0-0.3,0-0.4-0.1c-1.6-1-4.6-2.7-5.8-2.7c-2.4,0.3-4.8,0.9-7.1,1.6c-0.4,0.1-0.9-0.1-1-0.5
		s0.1-0.9,0.5-1l0,0c2.4-0.8,4.9-1.3,7.5-1.6h0c2.2,0,6.3,2.6,6.7,2.9c0.4,0.2,0.5,0.7,0.2,1.1C596.2,377.9,595.9,378.1,595.6,378.1
		L595.6,378.1z"/>
	<path class="st6" d="M596.2,382.7c-0.1,0-0.3,0-0.4-0.1c-2.7-1.6-6.1-3.1-6.8-3.1c-1.1,0.5-5.1,1.6-5.3,1.7c-0.4,0.1-0.9-0.1-1-0.5
		c-0.1-0.4,0.1-0.9,0.5-1l0,0c0,0,4.1-1.2,5.2-1.6c1.2-0.5,5.1,1.5,8.2,3.2c0.4,0.2,0.5,0.7,0.3,1.1
		C596.7,382.6,596.5,382.7,596.2,382.7L596.2,382.7z"/>
	<path class="st6" d="M597.7,628.9c0-0.6-0.1-1.2-0.2-1.8C597.5,627.7,597.6,628.3,597.7,628.9z"/>
	<path class="st6" d="M597.7,629.7c-0.4,0-0.7-0.3-0.8-0.7c-0.1-0.6-0.1-1.2-0.2-1.8c0-0.4,0.3-0.8,0.7-0.9c0.4,0,0.8,0.3,0.9,0.7
		c0,0.2,0,0.4,0.1,0.6c0.1,0.4,0.1,0.8,0.1,1.3C598.4,629.3,598.1,629.6,597.7,629.7L597.7,629.7z"/>
	<path class="st6" d="M664.8,634.5c0-0.3,0.1-0.8,0.2-1.5C664.9,633.7,664.8,634.2,664.8,634.5z"/>
	<path class="st6" d="M664.8,635.3L664.8,635.3c-0.5,0-0.8-0.4-0.8-0.8c0-0.3,0-0.6,0.1-0.9c0-0.1,0-0.3,0-0.4l0-0.3
		c0-0.4,0.4-0.8,0.9-0.7c0.4,0,0.7,0.4,0.7,0.8v0.1c0,0.1,0,0.2,0,0.3l-0.1,1.2C665.6,635,665.2,635.3,664.8,635.3z"/>
	<path class="st6" d="M598,633.3c-0.4,0-0.8-0.3-0.8-0.8v-0.2c0-0.4,0.3-0.8,0.8-0.8s0.8,0.3,0.8,0.8v0.2
		C598.8,633,598.5,633.3,598,633.3z"/>
	<path class="st6" d="M635.8,359.5l-0.1,0c-6.3-0.9-15-7.8-15.4-8.1c-0.3-0.3-0.4-0.8-0.1-1.1c0.3-0.3,0.7-0.4,1.1-0.1
		c0.1,0.1,8.7,6.9,14.6,7.7c0.4,0.1,0.7,0.5,0.7,0.9C636.5,359.2,636.2,359.5,635.8,359.5L635.8,359.5z"/>
	<path class="st6" d="M646.4,360.4c-0.4,0-0.8-0.4-0.8-0.8c0-0.4,0.3-0.7,0.7-0.8c0.1,0,11.4-1.8,17.4-4.4l6.2-2.6
		c0.4-0.2,0.9,0,1,0.5c0.2,0.4,0,0.8-0.4,1l-6.2,2.6c-6.2,2.6-17.3,4.4-17.8,4.5L646.4,360.4L646.4,360.4z"/>
	<path class="st0" d="M649.8,271.7c0,0-4.9,0.3-5.5,3.9c-0.7,3.6-0.3,4.9-3.2,5.5s-4.5,1.3-4.5,3.9s1,3.6-2.6,3.6s-2.9-2.3-4.2,1
		s-1.6,4.2-2.9,4.2c-1.3,0-1.6,11.4,0.3,18.5s7.5,18.2,11.7,19.5c4.2,1.3,10.6-3,15.2-6.8c4.2-3.5,11.4-14.9,11.4-14.9l1.3-1
		c0,0,2,0.3,2.9-2.3c0,0,0.3-4.2-1.6-5.5c-1.8-1.5-3.1-3.5-3.6-5.8c0-1,1.3-2.3,0-3.2s-3.6-1.9-3.9-4.2s2.6-5.2,0-6.8
		s-4.2-1-4.2-3.2s1.6-4.5-0.3-5.8C654.2,270.7,649.8,271.7,649.8,271.7z"/>
	<path class="st6" d="M640.5,332.8c-0.6,0-1.3-0.1-1.9-0.3c-4.6-1.4-10.3-12.8-12.2-20c-1.7-6.3-1.9-17.1-0.5-19
		c0.2-0.3,0.5-0.5,0.9-0.5c0.7,0,0.8-0.3,1.9-3.1l0.2-0.6c0.5-1.3,0.8-1.9,1.4-2.2c0.4-0.1,0.9-0.1,1.3,0.2c0.7,0.4,1.5,0.5,2.3,0.5
		c1.5,0,1.8-0.2,1.9-0.3c0.1-0.4,0.1-0.7,0-1.1c0-0.4-0.1-0.9-0.1-1.4c0-3.3,2.2-4,5.2-4.7c1.9-0.4,2-0.9,2.4-3.3
		c0.1-0.5,0.2-1,0.2-1.5c0.7-3.9,5.5-4.5,6.2-4.5c0.7-0.1,4.7-1,6.8,0.4c1.7,1.2,1.3,3,1,4.5c-0.2,0.7-0.3,1.3-0.3,2
		c0,0.9,0.2,1,1.3,1.4c0.9,0.3,1.7,0.7,2.5,1.2c2.2,1.4,1.4,3.5,0.9,5c-0.3,0.7-0.5,1.5-0.5,2.3c0.2,1.5,1.5,2.3,2.7,3.1
		c0.3,0.2,0.6,0.4,0.9,0.6c1.4,1,0.8,2.4,0.5,3.1c-0.1,0.2-0.2,0.4-0.2,0.7c0.5,2.1,1.6,3.9,3.3,5.3c2.2,1.5,1.9,5.7,1.9,6.2l0,0.2
		c-0.4,1.6-1.8,2.7-3.4,2.8l-1,0.7c-0.8,1.3-7.4,11.6-11.5,15C650.4,329,644.9,332.8,640.5,332.8L640.5,332.8z M627.1,294.6
		c-0.7,1.5-1,10.8,0.8,17.5c2,7.6,7.6,17.8,11.2,18.9c3.1,0.9,8.2-1.4,14.5-6.7c4-3.3,11.1-14.6,11.2-14.8l0.2-0.2l1.3-1
		c0.2-0.1,0.4-0.2,0.6-0.1c0.1,0,1.3,0.1,2-1.7c0.1-1.1,0-3.9-1.2-4.7c-2-1.6-3.3-3.8-3.9-6.3l0-0.2c0-0.5,0.1-0.9,0.3-1.3
		c0.3-0.9,0.3-1,0-1.3c-0.2-0.2-0.5-0.4-0.8-0.6c-1.3-0.8-3.1-2-3.4-4.2c-0.1-1.1,0.1-2.1,0.6-3.1c0.6-1.8,0.8-2.5-0.2-3.2
		c-0.7-0.4-1.4-0.8-2.2-1c-1.2-0.5-2.4-0.9-2.4-2.9c0-0.8,0.2-1.6,0.3-2.4c0.4-1.6,0.4-2.3-0.3-2.8c-1.3-0.9-4.5-0.4-5.6-0.2l-0.1,0
		c0,0-4.3,0.3-4.8,3.2c-0.1,0.6-0.2,1.1-0.2,1.5c-0.4,2.5-0.6,4-3.6,4.6c-3,0.6-3.9,1.2-3.9,3.1c0,0.5,0,0.9,0.1,1.3
		c0.2,0.8,0,1.6-0.4,2.3c-0.6,0.6-1.6,0.8-3,0.8c-1,0-2.1-0.2-3-0.7c-0.2,0.3-0.4,0.9-0.5,1.1l-0.2,0.6
		C629.1,293.2,628.6,294.4,627.1,294.6z"/>
	<path class="st6" d="M637.2,296.3c0.8,0,1.5,1.6,1.5,3.7s-0.7,3.7-1.5,3.7s-1.5-1.6-1.5-3.7S636.4,296.3,637.2,296.3z"/>
	<path class="st6" d="M653.1,302.6c-0.4,2-1.3,3.5-2.1,3.3s-1.2-1.9-0.8-3.9s1.3-3.5,2.1-3.4S653.5,300.6,653.1,302.6z"/>
	<path class="st6" d="M643.6,318.9c-5.6,0-7.2-3.1-7.3-3.2c-0.2-0.4,0-0.9,0.4-1.1c0.4-0.2,0.8,0,1,0.3c0.1,0.2,2.3,4,11,1.6
		c0.4-0.1,0.8,0.1,1,0.6c0.1,0.4-0.1,0.9-0.6,1C647.3,318.6,645.5,318.8,643.6,318.9L643.6,318.9z"/>
	<path class="st6" d="M631.4,294c-0.4,0-0.8-0.4-0.8-0.8c0-0.2,0.1-0.5,0.3-0.6c0.1,0,5.7-4.2,10.9,0c0.3,0.3,0.4,0.8,0.1,1.1
		c-0.3,0.3-0.8,0.4-1.1,0.1l0,0c-4.2-3.5-8.9,0-9,0C631.7,294,631.6,294,631.4,294z"/>
	<path class="st6" d="M659.9,299.6c-0.3,0-0.5-0.1-0.7-0.4c-4.7-7.1-10.4-4.6-10.7-4.5c-0.4,0.2-0.9,0-1-0.4c-0.2-0.4,0-0.9,0.4-1
		c0.1,0,7.2-3.2,12.6,5c0.2,0.4,0.2,0.9-0.2,1.1l0,0C660.2,299.6,660,299.6,659.9,299.6z"/>
	<path class="st6" d="M643.2,312.2c-0.1,0-0.2,0-0.3,0c-2.3-0.1-4.1-1.9-4.2-4.2l0-0.2c0.1-0.9,0.5-1.7,0.9-2.4
		c0.2-0.4,0.7-0.5,1.1-0.2c0.4,0.2,0.5,0.7,0.2,1.1c-0.3,0.5-0.6,1.1-0.7,1.8c0.1,1.5,1.3,2.6,2.7,2.6c1.4,0.1,2.7-0.9,2.8-2.3v0
		c0-0.3,0-0.6-0.1-0.9c-0.1-0.4,0.1-0.9,0.5-1c0.4-0.1,0.8,0.1,1,0.5v0c0.6,2.2-0.6,4.5-2.8,5.1C644,312.1,643.6,312.2,643.2,312.2
		L643.2,312.2z"/>
	<polyline class="st0" points="113.2,381.7 61.3,364.8 56.6,352.5 46.1,352.2 26.9,348.6 29.2,352.5 53.3,370.1 59.3,373 
		113.6,401.4 113.2,381.7 	"/>
	<path class="st6" d="M114.5,402.7l-55.6-29l-5.9-3l-24.4-17.8l-3.2-5.5l20.9,4l11,0.3l4.7,12.4l52.2,17L114.5,402.7 M29.8,352
		l24,17.4l5.8,2.9l53.2,27.8l-0.4-17.8l-51.8-16.9l-4.6-12.1l-10-0.3l-17.6-3.3L29.8,352"/>
	<polyline class="st0" points="56.6,352.5 51.7,349.6 41.8,353.2 43.4,355.2 56.6,352.5 	"/>
	<path class="st6" d="M43.4,356c-0.2,0-0.5-0.1-0.6-0.3l-1.6-2c-0.3-0.3-0.2-0.8,0.1-1.1l0.2-0.1l9.9-3.6c0.2-0.1,0.5-0.1,0.7,0.1
		l5,3c0.4,0.2,0.5,0.7,0.3,1.1c-0.1,0.2-0.3,0.3-0.5,0.4L43.6,356L43.4,356L43.4,356 M43.1,353.6l0.6,0.8l10.7-2.1l-2.9-1.7
		L43.1,353.6"/>
	<polyline class="st0" points="113.2,381.7 61.3,364.8 56.6,352.5 46.1,352.2 26.9,348.6 29.2,352.5 53.3,370.1 59.3,373 
		113.6,401.4 113.2,381.7 	"/>
	<g>
		<g>
			<defs>
				<polyline id="SVGID_1_" points="113.2,381.7 61.3,364.8 56.6,352.5 46.1,352.2 26.9,348.6 29.2,352.5 53.3,370.1 59.3,373 
					113.6,401.4 113.2,381.7 				"/>
			</defs>
			<clipPath id="SVGID_2_">
				<use xlink:href="#SVGID_1_"  style="overflow:visible;"/>
			</clipPath>
			<path class="st7" d="M56.1,353.5l-10.4,2.1l5.4,2l0,0.1l1.7,11.1l0.9,0.6l5.8,2.9l27.5,14.4l17.9,6.5c-0.2-2.8-0.5-5.6-0.8-8.4
				c-0.2-1.8-0.3-3.5-0.5-5.3l-43.1-14.1L56.1,353.5 M37.1,351.3l3,2.1l1.1,0.4l-0.1-0.1c-0.3-0.3-0.2-0.8,0.1-1.1l0.2-0.1l0.6-0.2
				l-1.9-0.4L37.1,351.3 M31.3,350.2l3.4,2.7l1.4-1.8L31.3,350.2"/>
		</g>
		<g>
			<defs>
				<polyline id="SVGID_3_" points="113.2,381.7 61.3,364.8 56.6,352.5 46.1,352.2 26.9,348.6 29.2,352.5 53.3,370.1 59.3,373 
					113.6,401.4 113.2,381.7 				"/>
			</defs>
			<clipPath id="SVGID_4_">
				<use xlink:href="#SVGID_3_"  style="overflow:visible;"/>
			</clipPath>
			<path class="st8" d="M56.1,353.5L56.1,353.5l4.5,12l43.1,14.1l0,0l-43.1-14.1L56.1,353.5 M40.1,351.9l1.9,0.4L40.1,351.9"/>
		</g>
	</g>
	<path class="st6" d="M114.5,402.7l-55.6-29l-5.9-3l-24.4-17.8l-3.2-5.5l20.9,4l11,0.3l4.7,12.4l52.2,17L114.5,402.7 M29.8,352
		l24,17.4l5.8,2.9l53.2,27.8l-0.4-17.8l-51.8-16.9l-4.6-12.1l-10-0.3l-17.6-3.3L29.8,352"/>
	<polyline class="st0" points="56.6,352.5 51.7,349.6 41.8,353.2 43.4,355.2 56.6,352.5 	"/>
	<g>
		<g>
			<defs>
				<polyline id="SVGID_5_" points="56.6,352.5 51.7,349.6 41.8,353.2 43.4,355.2 56.6,352.5 				"/>
			</defs>
			<clipPath id="SVGID_6_">
				<use xlink:href="#SVGID_5_"  style="overflow:visible;"/>
			</clipPath>
			<polyline class="st9" points="51.6,350.5 43.1,353.6 43.7,354.3 54.5,352.2 51.6,350.5 			"/>
		</g>
		<g>
			<defs>
				<polyline id="SVGID_7_" points="56.6,352.5 51.7,349.6 41.8,353.2 43.4,355.2 56.6,352.5 				"/>
			</defs>
			<clipPath id="SVGID_8_">
				<use xlink:href="#SVGID_7_"  style="overflow:visible;"/>
			</clipPath>
			<polyline class="st10" points="54.5,352.2 43.7,354.3 43.7,354.3 54.5,352.2 			"/>
		</g>
	</g>
	<path class="st6" d="M43.4,356c-0.2,0-0.5-0.1-0.6-0.3l-1.6-2c-0.3-0.3-0.2-0.8,0.1-1.1l0.2-0.1l9.9-3.6c0.2-0.1,0.5-0.1,0.7,0.1
		l5,3c0.4,0.2,0.5,0.7,0.3,1.1c-0.1,0.2-0.3,0.3-0.5,0.4L43.6,356L43.4,356L43.4,356 M43.1,353.6l0.6,0.8l10.7-2.1l-2.9-1.7
		L43.1,353.6"/>
	<path class="st0" d="M124.3,271.6c0,0-0.8,7.1,1.2,11.7s13.1,20,13.1,20l-20.8,16.6c0,0-8.6-17.4-10.3-20.2s-3.6-14.9,1.7-23.6
		C114.7,267.5,122.4,265.2,124.3,271.6"/>
	<g>
		<g>
			<defs>
				<path id="SVGID_9_" d="M124.3,271.6c0,0-0.8,7.1,1.2,11.7s13.1,20,13.1,20l-20.8,16.6c0,0-8.6-17.4-10.3-20.2
					s-3.6-14.9,1.7-23.6C114.7,267.5,122.4,265.2,124.3,271.6"/>
			</defs>
			<clipPath id="SVGID_10_">
				<use xlink:href="#SVGID_9_"  style="overflow:visible;"/>
			</clipPath>
			<path class="st11" d="M115,297.4c-0.3,1.2-0.8,2.5-1.6,3.6c-0.7,1.1-1.6,2.3-2.5,3.4c1.9,3.8,4.4,8.7,6,11.9
				c1.4-1.9,2.9-3.9,4.4-5.8L115,297.4"/>
		</g>
	</g>
	<path class="st6" d="M117.6,321.2l-0.4-0.9c-0.1-0.2-8.6-17.4-10.2-20.1c-1.9-3.3-3.7-15.6,1.8-24.4c3.5-5.7,8.3-9.1,12-8.6
		c2.1,0.3,3.7,1.8,4.4,4.2l0.1,0.2l0,0.2c0,0.1-0.8,7,1.1,11.3c1.9,4.4,12.9,19.7,13.1,19.9l0.4,0.6L117.6,321.2 M119.9,268.7
		c-2.6,0-6.6,2.4-9.9,7.9c-5.3,8.6-3.1,20.4-1.7,22.8c1.4,2.5,8.1,15.7,9.8,19.3l19.4-15.6c-2.1-3-11-15.4-12.8-19.5
		c-1.9-4.4-1.4-10.8-1.3-11.9c-0.3-1.5-1.5-2.6-3-2.9C120.3,268.7,120.1,268.7,119.9,268.7L119.9,268.7"/>
	<path class="st0" d="M130.7,258.6c-1.3-7.9-10.3-23.9-24.7-23.3c-9.3,0.4-13.7,2.3-17.7,4.6c-3.3,1.9-6.4,4.2-9.2,6.9
		c-7,8.4-9.5,10.7-8.1,17.2c-0.1,2.6,0.3,5.1,1.2,7.5c2.2,5.7,3.6,9.5,5.5,12.2c-0.6,2.7-2.1,9.7-2.1,11.3c-0.1,1.6,4.7,0.5,7.2-0.1
		c4.5,10.1,12.8,17.1,15.4,17.9c4.5,1.4,11.6-6,15.3-11.7s0.9-12.1,0.9-14.7s8.4-8.2,11.6-10C129.1,274.6,132,266.5,130.7,258.6"/>
	<g>
		<g>
			<defs>
				<path id="SVGID_11_" d="M130.7,258.6c-1.3-7.9-10.3-23.9-24.7-23.3c-9.3,0.4-13.7,2.3-17.7,4.6c-3.3,1.9-6.4,4.2-9.2,6.9
					c-7,8.4-9.5,10.7-8.1,17.2c-0.1,2.6,0.3,5.1,1.2,7.5c2.2,5.7,3.6,9.5,5.5,12.2c-0.6,2.7-2.1,9.7-2.1,11.3
					c-0.1,1.6,4.7,0.5,7.2-0.1c4.5,10.1,12.8,17.1,15.4,17.9c4.5,1.4,11.6-6,15.3-11.7s0.9-12.1,0.9-14.7s8.4-8.2,11.6-10
					C129.1,274.6,132,266.5,130.7,258.6"/>
			</defs>
			<clipPath id="SVGID_12_">
				<use xlink:href="#SVGID_11_"  style="overflow:visible;"/>
			</clipPath>
			<polyline class="st12" points="99.1,312.9 99.1,312.9 99.3,312.9 99.1,312.9 			"/>
		</g>
		<g>
			<defs>
				<path id="SVGID_13_" d="M130.7,258.6c-1.3-7.9-10.3-23.9-24.7-23.3c-9.3,0.4-13.7,2.3-17.7,4.6c-3.3,1.9-6.4,4.2-9.2,6.9
					c-7,8.4-9.5,10.7-8.1,17.2c-0.1,2.6,0.3,5.1,1.2,7.5c2.2,5.7,3.6,9.5,5.5,12.2c-0.6,2.7-2.1,9.7-2.1,11.3
					c-0.1,1.6,4.7,0.5,7.2-0.1c4.5,10.1,12.8,17.1,15.4,17.9c4.5,1.4,11.6-6,15.3-11.7s0.9-12.1,0.9-14.7s8.4-8.2,11.6-10
					C129.1,274.6,132,266.5,130.7,258.6"/>
			</defs>
			<clipPath id="SVGID_14_">
				<use xlink:href="#SVGID_13_"  style="overflow:visible;"/>
			</clipPath>
			<path class="st13" d="M88.7,242.7l-9.5,3.9l0,0c-7.1,8.5-9.5,10.8-8.1,17.2c-0.1,2.6,0.3,5.1,1.2,7.5c2.2,5.7,3.6,9.5,5.5,12.2
				c-0.6,2.7-2.1,9.7-2.1,11.3c0,0.5,0.5,0.8,1.2,0.8c0.1,0,0.2,0,0.3,0c1.6,0,4-0.6,5.5-1l0,0l0.1,0c4.5,10.1,12.8,17.1,15.4,17.9
				c0.3,0.1,0.6,0.1,0.9,0.2l0.2,0c4.5,0,10.7-6.6,14.1-11.9c1.1-1.6,1.6-3.2,1.8-4.9c-0.2-0.7-0.3-1.1-0.3-1.1s-1.9,7.2-5.6,7.2
				c-0.2,0-0.5,0-0.8-0.1c-4.2-1.1-10.6-9.5-14.2-12.4c-3.6-2.9-2.1-6.7-2.8-11c-0.7-4.3-11.3-8.1-12-10.6
				c-0.7-2.5,1.8-12.7,1.8-12.7s2.8-3.7,3.2-3.7c0.1,0,0.1,0.2-0.1,0.5c-1.2,3.9-0.9,8.1,1.1,11.7c1.3,2.8,4.2,4.6,7.3,4.6H93
				l3.8-19.1L88.7,242.7"/>
		</g>
	</g>
	<path class="st6" d="M99.3,313.7c-0.5,0-0.9-0.1-1.4-0.2c-3-0.9-11-8-15.6-17.8c-4,1-6.1,1.1-7,0.3c-0.3-0.3-0.5-0.7-0.5-1.2
		c0.1-1.1,0.8-4.9,2.1-11.1c-1.8-2.8-3.3-6.5-5.4-12.1c-0.9-2.5-1.3-5.1-1.2-7.8c-1.3-6.3,0.9-8.9,6.8-16l1.5-1.8c2.8-2.7,6-5,9.4-7
		c3.8-2.1,8.3-4.2,18.1-4.7c14.3-0.6,24,15.1,25.5,24c1.3,8.1-1.7,16.6-5.2,18.6c-4.4,2.5-11.2,7.5-11.2,9.3
		c0.1,0.8,0.2,1.6,0.3,2.4c0.6,3.3,1.6,8.2-1.4,12.8C110.7,306.6,104.2,313.7,99.3,313.7L99.3,313.7z M83.2,293.9l0.3,0.6
		c4.4,9.8,12.4,16.7,14.9,17.5c3.6,1.1,10.2-4.9,14.4-11.4c2.7-4,1.8-8.6,1.2-11.6c-0.2-0.9-0.3-1.8-0.4-2.7
		c0-3.7,11.8-10.6,12-10.6c2.6-1.5,5.7-9,4.4-17c-1.1-6.9-9.6-23.3-23.9-22.7c-9.5,0.4-13.6,2.4-17.4,4.5c-3.2,1.9-6.3,4.2-9,6.7
		l-1.4,1.7c-5.9,7-7.7,9.1-6.5,14.7l0,0.1v0.1c-0.1,2.5,0.3,4.9,1.1,7.2c2.1,5.7,3.6,9.4,5.4,12l0.2,0.3l-0.1,0.3
		c-1.8,8.3-2.1,10.6-2.1,11.2c0,0,0.2,0,0.6,0c1.9-0.1,3.8-0.4,5.6-1L83.2,293.9z"/>
	<path class="st6" d="M82.3,284.2c-0.4,0-0.9,0-1.3-0.2l-0.4-0.1l-1.7-4.9c-0.1-0.4,0.1-0.9,0.5-1c0.4-0.1,0.9,0.1,1,0.5l1.4,4.1
		c0.9,0.1,3.4,0,6.3-3.2c0.3-0.3,0.8-0.3,1.1,0s0.3,0.8,0.1,1.1C86.4,283.7,83.8,284.2,82.3,284.2z"/>
	<path class="st6" d="M91.3,300.7c-0.4,0-0.8-0.4-0.8-0.8c0-0.4,0.3-0.8,0.7-0.8c0.2,0,3.3-0.5,4.6-5.1c0.1-0.4,0.6-0.7,1-0.5
		s0.7,0.6,0.5,1C95.7,300.2,91.6,300.7,91.3,300.7L91.3,300.7z"/>
	<path class="st6" d="M77,275.8l-0.3,0c-0.4-0.1-0.6-0.6-0.5-1c0.1-0.2,1.4-3.9,8.6-3.9c0.4,0,0.8,0.4,0.8,0.8s-0.3,0.8-0.8,0.8
		c-6,0-7.1,2.8-7.2,2.9C77.7,275.6,77.4,275.8,77,275.8z"/>
	<path class="st6" d="M111.8,229c-4.9-0.7-9.9-1.1-14.8-1.1c0,0-14.9-8.6-29.2,0.6s-7.4,25.1-7.4,29.1c0,4-4.6,4-1.7,9.2
		c2.9,5.1,12.5,2.3,12.5,2.3c0.2-3.9,2.1-7.6,5.2-10c5.2-4,9.2-4.9,11-3.7c0,0-1.1,8.6,0.6,12c0,0,5.7,2.9,7.4,2.9
		c1.7,0-1.1,2.4,4.6,4.6c2.1,0.8,4.4,0.5,6.3-0.7c0.8-3.5,2.7-8.7,6.1-7.5c5,1.8,9.6,14.1,2.8,18.3c8.2,1.5,18-12.9,18.6-26.1
		C134.2,245.6,120.2,230.5,111.8,229z"/>
	<path class="st0" d="M117.6,261.4c-9.9,0-17.2-5.2-21.1-8.9c-4.9-4.6-8.7-2.6-8.9-2.5c-0.2,0.1-0.4,0-0.5-0.2s0-0.4,0.2-0.5
		c0.2-0.1,4.5-2.3,9.8,2.6c4.7,4.4,14.6,11.2,28,7.6c0.2-0.1,0.4,0,0.5,0.2c0.1,0.2-0.1,0.4-0.2,0.5l0,0
		C122.8,261,120.2,261.4,117.6,261.4z"/>
	<path class="st0" d="M119.8,248.4c-5.3,0-11.2-2.2-16.3-4.2c-3.7-1.4-6.8-2.6-8.8-2.6c-4.6,0-7.4,4.3-7.4,4.3
		c-0.1,0.2-0.4,0.2-0.5,0.1c-0.2-0.1-0.2-0.4-0.1-0.5c0.1-0.2,3.1-4.7,8.1-4.7c2.1,0,5.3,1.2,9.1,2.6c5.1,1.9,10.9,4.1,16.1,4.1
		c0.2,0,0.4,0.2,0.4,0.4C120.1,248.2,120,248.4,119.8,248.4L119.8,248.4z"/>
	<path class="st0" d="M71.1,264.2c-0.1,0-0.3-0.1-0.3-0.2c0-0.1-3.4-5.5,1.9-11.1c1.2-1.4,3-2.3,4.9-2.3c3.5,0.1,6.2,3.4,6.3,3.6
		c0.2,0.1,0.2,0.4,0,0.6c-0.2,0.2-0.4,0.2-0.6,0l-0.1-0.1c0,0-2.6-3.2-5.8-3.3h-0.2c-1.6,0.1-3.1,0.8-4.1,2c-4.9,5.2-2,10-1.8,10.2
		c0.1,0.2,0.1,0.4-0.1,0.5L71.1,264.2z"/>
	<path class="st0" d="M61.7,259.4c-0.2,0-0.4-0.2-0.4-0.4c0-0.1,0-0.2,0.1-0.3c3.1-2.8,5-6.6,5.3-10.7c0.4-4,3.5-7.9,7.6-9.4
		c3.2-1.4,6.9-0.7,9.5,1.8c0.2,0.1,0.2,0.4,0.1,0.6s-0.4,0.2-0.6,0.1l-0.1-0.1c-2.3-2.2-5.7-2.8-8.6-1.6c-3.9,1.4-6.8,5.1-7.1,8.8
		c-0.4,4.3-2.4,8.3-5.6,11.2C61.9,259.3,61.8,259.4,61.7,259.4z"/>
	<path class="st0" d="M89.4,236.2c-0.1,0-0.2-0.1-0.3-0.2c-2.4-3.6-5.2-5.5-8.2-5.8c-4.8-0.5-8.8,3.3-8.9,3.3
		c-0.2,0.1-0.4,0.1-0.6,0l0,0c-0.2-0.2-0.2-0.4,0-0.6c0.2-0.2,4.3-4.1,9.5-3.5c3.3,0.4,6.3,2.4,8.8,6.2c0.1,0.2,0.1,0.4-0.1,0.5l0,0
		L89.4,236.2z"/>
	<path class="st0" d="M150.5,692.7c0,0,5.9,9.2,5.3,15.2l-0.6,5.9c0,0-21.8,6-26.5,6c-4.6,0-29.1-2.3-29.1-2.3l-1.1-4.2
		c-0.2-0.6,0.2-1.3,0.8-1.6l21.8-10.2l6.9-7.5L150.5,692.7z"/>
	<path class="st6" d="M128.6,720.6c-4.6,0-28.2-2.2-29.2-2.3l-0.6,0l-1.2-4.7c-0.2-1,0.3-2,1.2-2.5l21.7-10.1l7-7.7l23.3-1.4
		l0.2,0.4c0.2,0.4,6.1,9.6,5.4,15.7l-0.7,6.5l-0.5,0.1C154.4,714.9,133.3,720.6,128.6,720.6z M100.2,716.8
		c3.7,0.3,24.3,2.3,28.5,2.3c4.1,0,22.4-4.9,25.7-5.8l0.6-5.4c0.6-4.9-3.8-12.5-4.9-14.3l-21.7,1.3l-6.9,7.5l-21.8,10.2
		c-0.2,0.1-0.4,0.4-0.3,0.7L100.2,716.8z"/>
	<path class="st1" d="M132,715.2c5.9,0.5,17.2-3.2,23.7-5.5l-0.5,4.1c0,0-21.9,6-26.5,6c-4.6,0-29.1-2.3-29.1-2.3l-0.8-3
		C102.7,714.5,124.1,714.6,132,715.2z"/>
	<path class="st6" d="M128.6,720.6c-4.6,0-28.2-2.2-29.2-2.3l-0.6,0l-1.1-4.5l1.7,0c16.6,0.1,27.6,0.3,32.6,0.7
		c5.4,0.4,15.7-2.7,23.4-5.4l1.2-0.4l-0.7,5.9l-0.5,0.1C154.5,714.9,133.3,720.6,128.6,720.6z M100.2,716.8
		c3.7,0.3,24.3,2.3,28.5,2.3c4.1,0,22.5-4.9,25.8-5.8l0.3-2.3c-7.6,2.7-17.4,5.5-22.8,5.1c-4.9-0.4-15.7-0.6-32.1-0.7L100.2,716.8z"
		/>
	<path class="st0" d="M121.1,701.6l-31.8,13.8c0,0-2.7,6.8,0,8.2c2.7,1.4,61.9,0,61.9,0s4.1-10.8-2.4-18
		C142.4,698.4,121.1,701.6,121.1,701.6z"/>
	<path class="st6" d="M107.5,724.9c-9.7,0-17.5-0.2-18.5-0.7c-3.3-1.6-0.7-8.4-0.4-9.2l0.1-0.3l32.3-14c0.9-0.1,21.8-3.2,28.5,4.3
		c6.7,7.5,2.7,18.3,2.5,18.8l-0.2,0.5l-0.5,0C145.1,724.5,123.5,724.9,107.5,724.9z M89.9,716c-0.8,2.1-1.8,6.1-0.3,6.9
		c2.2,0.9,37.5,0.5,61-0.1c0.7-2.2,2.9-10.8-2.4-16.7c-5.9-6.6-25.4-4-27-3.8L89.9,716z"/>
	<path class="st1" d="M151.2,723.5c0,0-59.2,1.4-61.9,0c-1.3-0.7-1.4-2.6-1.1-4.4h64C152.1,720.7,151.7,722.1,151.2,723.5
		L151.2,723.5z"/>
	<path class="st6" d="M107.5,724.9c-9.7,0-17.5-0.2-18.5-0.7c-1.4-0.7-1.9-2.5-1.5-5.2l0.1-0.7h65.6l-0.1,0.9
		c-0.2,1.5-0.6,3.1-1.1,4.5l-0.2,0.5l-0.6,0C145.1,724.5,123.5,724.9,107.5,724.9L107.5,724.9z M89,719.9c-0.1,1.1-0.1,2.5,0.7,2.9
		c2.2,0.9,37.5,0.5,61-0.1c0.3-0.9,0.5-1.9,0.7-2.8H89z"/>
	<path class="st1" d="M106.1,461.3c0,0-8.3,36.8-11.4,59.8c-3.2,23-5,69.1-4.3,74.4c0.7,5.3,33.7,93.9,33.7,93.9l3.3,7.9l23.1-4.6
		c0,0-10.6-33.7-14.5-52.2c-4-18.5-12.6-48.9-12.6-54.2c0-5.3,20.5-106.3,22-112.9c1.5-6.6,8.1-16.8,8.1-16.8l-44.3-0.9L106.1,461.3
		z"/>
	<path class="st6" d="M126.8,698.2l-3.6-8.5c-1.4-3.7-33.1-88.8-33.8-94.1c-0.7-5.2,1.2-51.4,4.3-74.6c3.1-22.8,11.4-59.5,11.5-59.9
		l0.1-0.2l3.3-6.1l46.2,0.9l-0.8,1.2c-0.1,0.1-6.6,10.1-8,16.5c-2.2,9.8-22,107.7-22,112.7c0,3,2.9,14.6,6.1,27
		c2.4,9.5,4.9,19.2,6.5,27.1c3.9,18.3,14.4,51.8,14.5,52.2l0.3,0.8L126.8,698.2z M106.8,461.5c-0.5,2.2-8.4,37.5-11.4,59.6
		c-3.2,23.2-5,69.1-4.3,74.2c0.5,4.1,22.2,63.1,33.7,93.7l3,7.3l21.6-4.3c-1.7-5.3-10.7-34.8-14.3-51.5c-1.7-7.8-4.1-17.6-6.5-27
		c-3.3-13-6.1-24.2-6.1-27.3c0-5.4,20.7-107.1,22-113.1c1.2-5.4,5.7-13,7.5-15.9l-42.4-0.9L106.8,461.5z"/>
	<path class="st1" d="M106.1,461.3c0,0-4.9,33.6-2.9,57c2,23.4,6.3,73.1,6.3,80.5c0,7.4,11.9,51.6,12.6,65.5c1.1,20.1-0.4,30-0.4,30
		l-0.7,7.3c0,0,13.9,2,17,2.9c3.5,0.9,7.1,1.3,10.8,1.2c0,0,5.1-22.3,5.1-41.3s-4.2-58.1-6.3-74c-2.1-15.8,4.5-77,8.3-88.4
		c3.8-11.4,12-35.6,6.4-47.9C156.7,441.6,106.1,461.3,106.1,461.3z"/>
	<path class="st6" d="M147.4,706.4c-3.2,0-6.5-0.4-9.6-1.2c-3-0.8-16.8-2.8-16.9-2.8l-0.8-0.1l0.8-8c0-0.1,1.5-10.1,0.4-29.9
		c-0.4-7.5-4.1-24.2-7.4-39c-2.8-12.4-5.2-23.2-5.2-26.6c0-7-3.9-52.1-6-76.4l-0.3-4c-2-23.2,2.8-56.8,2.9-57.2l0.1-0.5l0.4-0.2
		c2.1-0.8,51.4-19.8,57.2-6.9c5.5,12.3-2.1,35.3-6.1,47.6l-0.3,0.9c-3.6,11-10.4,72-8.2,88c2.2,16.6,6.3,55.5,6.3,74.1
		c0,18.9-5,41.3-5.1,41.5l-0.1,0.6l-0.6,0C148.4,706.4,147.9,706.4,147.4,706.4z M121.9,700.9c3,0.4,13.6,2,16.3,2.8
		c3.2,0.8,6.6,1.2,9.9,1.2c0.8-3.7,4.9-23.6,4.9-40.5c0-18.6-4.1-57.3-6.3-73.9c-2.1-16.2,4.6-77.7,8.3-88.8l0.3-0.9
		c3.7-11.3,11.4-34.7,6.2-46.5c-4.2-9.5-40.5,2.1-54.7,7.6c-0.6,4.1-4.6,34.8-2.8,56.3l0.3,4c2.1,24.3,6,69.5,6,76.5
		c0,3.3,2.5,14.4,5.2,26.2c3.3,14.8,7.1,31.6,7.5,39.2c1.1,19.9-0.4,30.1-0.4,30.2L121.9,700.9z"/>
	<path class="st6" d="M168.4,447.8l-0.5,15c0,0-9,1.8-21.1,3.9c-10,1.7-35.1-0.5-43.6-1.3c-1.6-0.1-2.8-1.5-2.7-3.2l0.8-13.6
		L168.4,447.8z"/>
	<path class="st0" d="M133.2,297.9c0,0-14.2,15.4-19.6,24.9c-5.3,9.5-7.5,24.2-9.5,35.7c-2,11.5,3.4,38.6,1.9,51l-4.8,39.1
		c0,0-1,2.6,2.4,5.6s20.5,4,35.9,4.7c5.6,0.3,22.4-3.3,25.1-3.5c3.3-0.2,3.4-4.4,3.6-7.7c0.7-15.6,3.5-57.1,5.3-75.2
		C177.4,335.7,156.6,300,133.2,297.9"/>
	<path class="st6" d="M140.3,459.8c-0.2,0-0.5,0-0.7,0c-16.4-0.8-32.7-1.9-36.4-4.9c-3.5-2.9-2.9-5.7-2.7-6.3l4.8-39.1
		c0.7-5.9-0.2-15.5-1-24.7c-0.9-10-1.9-20.3-0.8-26.4l0.6-3.3c1.9-11.2,4.1-23.9,9-32.7c5.3-9.5,19.1-24.4,19.7-25.1l0.3-0.3l0.4,0
		c8.5,0.8,17.1,6,24.3,14.7c12.7,15.4,19.1,38.7,16.9,60.8c-1.9,18.3-4.7,60.3-5.3,75.2l0,0.2c-0.1,3.4-0.3,8-4.3,8.3
		c-0.9,0-3.4,0.5-6.4,1C152.5,458.4,144.4,459.8,140.3,459.8 M133.5,298.8c-2,2.2-14.3,15.8-19.2,24.5c-4.8,8.5-6.9,21.1-8.8,32.2
		l-0.6,3.3c-1,5.9-0.1,16.1,0.9,25.9c0.9,9.3,1.8,18.9,1,25L102,449c0,0.1-0.7,2.2,2.2,4.7c3.5,3,24.3,4,35.5,4.5
		c3.7,0.1,12.6-1.4,18.5-2.5c3.1-0.5,5.6-1,6.5-1c2.4-0.1,2.7-3,2.8-6.8l0-0.2c0.6-14.9,3.4-56.9,5.3-75.2
		c2.2-21.7-4.1-44.6-16.5-59.6C149.6,304.6,141.5,299.6,133.5,298.8L133.5,298.8"/>
	<path class="st1" d="M171.9,393.5c0.6-8.2,1.3-15.6,1.8-21c0.2-1.6,0.2-3.2,0.3-4.7l-37.8,6.3l-32.4-11c0,6.7,0.4,13.4,1.1,20.1
		l31.8,8.9L171.9,393.5"/>
	<path class="st1" d="M131.8,299.5c-2.2,2.4-6.4,7.2-10.5,12.4l24,24.4l7.9-3.2L131.8,299.5z"/>
	<path class="st6" d="M133.2,297.9c0,0-14.2,15.4-19.6,24.9c-1.6,2.9-2.9,6-3.8,9.1l28.6-33C136.7,298.5,135,298.1,133.2,297.9z"/>
	<path class="st1" d="M105.3,352.3l31,10.2l37.7-4.3c-0.6-9.4-2.7-18.6-6.2-27.3L137.4,343l-27.1-12.3
		C108.1,337.8,106.4,345,105.3,352.3z"/>
	<path class="st1" d="M158.7,432.2c-15.7,2.6-31.9,1.3-46.9-3.8l-7.6-2.6l-2.3,18.9l8.6,2.4c16.4,4.6,33.5,5.9,50.4,3.9l7-0.8
		c0.4-0.8,0.6-1.6,0.6-2.5c0.2-4.2,0.5-10.3,0.9-17.4L158.7,432.2z"/>
	<path class="st1" d="M162.9,406.4c-15.7,2.6-31.9,1.3-46.9-3.9l-9.6-3.3c0.2,3.4,0.2,6.9-0.1,10.3l-1.1,9.1l9.6,2.7
		c16.4,4.6,33.5,5.9,50.4,3.9l4.7-0.6c0.4-6.3,0.9-13,1.3-19.7L162.9,406.4"/>
	<polyline class="st6" points="14.8,339.6 16.1,338 46.6,362.6 45.3,364.2 14.8,339.6 	"/>
	<path class="st0" d="M147.9,315c0,0,11.2,7.6,11.4,25.6c0.1,7.9-0.7,15.3-2.5,28.2c-1.8,12.9-13.1,55-21.9,60.1
		c-8.8,5.1-22.4-4.5-22.4-4.5l-65.9-43.8l-15.9-12.9l-7.9-14.9l2.5-4.7l19.4,14.9l-10.5-9.7l2-2.6l3.8,2.6l11,4.1l2.4,15.8l3.4,2.3
		l63,23c0,0-0.8-33.9-0.2-40.4c0.6-6.5,1.4-22.8,8.3-34.6L147.9,315"/>
	<g>
		<g>
			<defs>
				<path id="SVGID_15_" d="M147.9,315c0,0,11.2,7.6,11.4,25.6c0.1,7.9-0.7,15.3-2.5,28.2c-1.8,12.9-13.1,55-21.9,60.1
					c-8.8,5.1-22.4-4.5-22.4-4.5l-65.9-43.8l-15.9-12.9l-7.9-14.9l2.5-4.7l19.4,14.9l-10.5-9.7l2-2.6l3.8,2.6l11,4.1l2.4,15.8
					l3.4,2.3l63,23c0,0-0.8-33.9-0.2-40.4c0.6-6.5,1.4-22.8,8.3-34.6L147.9,315"/>
			</defs>
			<clipPath id="SVGID_16_">
				<use xlink:href="#SVGID_15_"  style="overflow:visible;"/>
			</clipPath>
			<path class="st14" d="M25.3,348.2L25.3,348.2l-2.4,4.6l7.9,14.9l15.9,12.9l4,2.7l87.1,28l-18.2-38.2c0.1,11.7,0.4,25.6,0.4,25.6
				l-0.1,0v0l-63-22.9l-3.4-2.3l0-0.1l0,0l-2.4-15.7l-11-4.1l-3.8-2.7l-2,2.6l7.5,7l2.9,2.7l0,0l0,0l-18.9-14.5L25.3,348.2"/>
		</g>
	</g>
	<path class="st6" d="M129,431.2c-8,0-16.4-5.9-16.9-6.2l-65.9-43.7l-16.2-13.1L22,352.9l3.1-5.9l8.3,6.4l2.8-3.6l4.3,3l11.4,4.3
		l2.4,15.9l3,2.1l61.8,22.6c-0.1-6.1-0.7-33.5-0.2-39.3l0.2-1.8c0.6-7.2,1.8-22.1,8.3-33.1l1.4,0.8c-6.3,10.7-7.5,25.4-8.1,32.5
		l-0.2,1.8c-0.6,6.4,0.2,40,0.2,40.3l0,1.2l-64.3-23.5l-3.7-2.5l-2.4-15.7l-10.8-4.1l-3.2-2.2l-1.1,1.4l9.9,9.2l-1,1.2l-18.7-14.3
		l-1.9,3.5l7.6,14.4L47.2,380l65.8,43.7c0.2,0.1,13.3,9.3,21.6,4.5c8.5-5,19.7-46.8,21.5-59.6s2.6-20.2,2.5-28.1
		c-0.2-17.4-11-24.9-11.1-25l0.9-1.3c0.5,0.3,11.5,8.1,11.8,26.3c0.1,7.9-0.7,15.5-2.5,28.3c-1.9,13.4-13.2,55.4-22.2,60.7
		C133.4,430.7,131.2,431.3,129,431.2L129,431.2z"/>
	<path class="st0" d="M120.1,398.7l24.1,17.4l6.2-11.1c0,0,4.3-3.4,4.9-6s-0.2-6.7,0.5-9.3s3.9-5,4.2-11.1s0-11.4,0-11.4
		s5.2-21.4,4.6-30.7c-0.6-9.3-9.6-25.8-16.8-26.1s-16.6,0.7-23.8,11.7c-7.3,11-5.8,43.1-6.9,45.1s0.4,11.9,0.4,11.9
		c-1.3,1-2.1,2.4-2.2,4c-0.1,2.6,2.7,8.9,2.7,8.9L120.1,398.7z"/>
	<path class="st6" d="M144.4,417.2l-25-18l-2.2-6.9c-0.3-0.6-2.8-6.5-2.7-9.2c0.1-1.6,0.9-3.2,2.2-4.3c-0.4-2.4-1.4-10-0.3-12
		c0.3-2.5,0.5-4.9,0.5-7.4c0.4-11.1,1.1-29.7,6.4-37.7c7.6-11.5,17.7-12.4,24.5-12.1c7.9,0.4,16.9,17.5,17.5,26.9
		c0.6,9.1-4.2,29-4.6,30.9c0,0.8,0.3,5.7,0,11.3c-0.2,3.2-1.2,6.2-3,8.8c-0.5,0.8-0.9,1.6-1.2,2.5c-0.2,1.5-0.3,3-0.2,4.5
		c0.1,1.6,0,3.2-0.3,4.8c-0.6,2.6-4.3,5.6-5.1,6.3L144.4,417.2z M120.7,398.2l23.1,16.7l6-10.5c1.1-0.9,4.2-3.6,4.7-5.5
		c0.2-1.5,0.3-2.9,0.2-4.4c-0.1-1.6,0-3.3,0.3-4.9c0.3-1,0.8-2,1.4-2.9c1.6-2.4,2.6-5.2,2.7-8.1c0.3-6.1,0-11.2,0-11.3l0-0.1l0-0.1
		c0.1-0.2,5.2-21.4,4.6-30.5c-0.6-9.4-9.6-25.1-16-25.4c-7-0.3-16,0.6-23.1,11.4c-5.1,7.7-5.8,26.7-6.2,36.9
		c-0.2,5.6-0.3,7.4-0.7,8.1c-0.7,1.2-0.1,7.4,0.5,11.4l0.1,0.5l-0.4,0.3c-1.1,0.8-1.8,2.1-1.9,3.4c-0.1,1.9,1.8,6.8,2.6,8.5
		L120.7,398.2z"/>
	<path class="st1" d="M117.7,359c0.1,2.8-0.2,5.5-0.6,8.2c-1,1.8,0.1,9.9,0.4,11.6c13.5,4.2,27.8,5.3,41.8,3.2
		c0.3-1.1,0.5-2.2,0.5-3.4c0.2-3.8,0.2-7.6,0-11.4c0,0,0.5-1.9,1.1-4.8C146.5,363.3,131.9,362.2,117.7,359z"/>
	<path class="st1" d="M123,323.9c-2.3,4.5-3.5,11.3-4.2,18.2c14.3,5.5,29.8,7.4,45,5.5c0.6-3.6,0.9-7.4,0.8-11
		c-0.3-2.9-1-5.8-2.1-8.5C149.2,328.3,136,326.9,123,323.9z"/>
	<path class="st6" d="M118,392.2l2,6.5l24.1,17.4l6.2-11c0,0,4.3-3.4,4.9-6c0.1-0.4,0.2-0.9,0.2-1.4
		C142.8,397.5,130.2,395.6,118,392.2z"/>
	<path class="st6" d="M136.2,704.2l-1.6-0.1c0-0.1,0.6-13.9,3.2-33.7c2.4-18-2.5-43-4.7-52.8c-0.6-2.5-0.4-6.4-0.3-10.2
		c0.1-3.5,0.3-7-0.2-8.8l-0.2-0.7c-1.4-4.9-5.9-19.9-3-37.4c2.8-17.2,5.2-61.5,5.4-66.1c-1.5-1.3-7.7-7-9.8-14.4
		c-2.3-8.1-0.6-10.9-0.4-11.2l1.3,0.9c0,0-1.4,2.5,0.6,9.9c2.1,7.7,9.5,13.7,9.6,13.8l0.3,0.2l0,0.4c0,0.5-2.5,48.6-5.5,66.7
		c-2.8,17.1,1.5,31.8,2.9,36.7l0.2,0.7c0.6,2,0.4,5.5,0.3,9.2c-0.1,3.7-0.3,7.5,0.2,9.8c2.2,10,7.1,35.1,4.8,53.4
		C136.7,690.4,136.2,704.1,136.2,704.2z"/>
	
		<rect x="129.2" y="477.4" transform="matrix(0.177 -0.9842 0.9842 0.177 -357.5535 528.8414)" class="st6" width="16.4" height="1.6"/>
	<path class="st5" d="M507.9,42.8c0,16.1-13,29.1-29.1,29.1c-11.9,0-22.6-7.2-27-18.3c-0.3-0.7-0.5-1.4-0.8-2.1
		c-0.3-0.9-0.5-1.9-0.7-2.9c-0.4-1.9-0.6-3.8-0.6-5.8c0-0.6,0-1.3,0.1-1.9c1-14.8,12.9-26.5,27.8-27.2c0.4,0,0.8,0,1.2,0
		c2.1,0,4.2,0.2,6.3,0.7c0.5,0.1,0.9,0.2,1.4,0.3C499.1,18.2,507.9,29.7,507.9,42.8"/>
	<path class="st15" d="M478.8,67.2c-13.5,0-24.4-10.9-24.4-24.4s10.9-24.4,24.4-24.4s24.4,10.9,24.4,24.4l0,0
		C503.2,56.2,492.3,67.2,478.8,67.2 M478.8,19c-13.1,0-23.8,10.6-23.8,23.8s10.6,23.8,23.8,23.8s23.8-10.7,23.8-23.8
		C502.6,29.6,492,19,478.8,19"/>
	<path class="st16" d="M478.6,30.1c-2.3,0-4.5,0.7-6.5,2c-1.9,1.3-3.2,3.2-3.9,5.3h-2.7V40h2.1c0,0.5-0.1,0.9-0.1,1.2
		c0,0.2,0,0.6,0.1,1.1h-2.1v2.6h2.6c0.7,2.2,2,4,3.9,5.4c2,1.3,4.3,2,6.6,2c2.2,0,4.4-0.6,6.3-1.8c1.8-1.2,3.2-3.1,3.8-5.2h-5
		c-0.5,0.9-1.2,1.7-2.1,2.3l0,0c-0.9,0.5-1.9,0.8-3,0.8h-0.1h-0.1c-1.1,0-2.3-0.3-3.3-0.9s-1.8-1.5-2.3-2.5h6v-2.6h-6.7
		c0-0.5-0.1-0.9-0.1-1.1c0-0.3,0-0.7,0.1-1.2h6.7v-2.6h-6c0.5-1,1.3-1.9,2.3-2.5c1-0.6,2.1-0.9,3.2-0.9h0.1h0.1c1,0,2.1,0.3,3,0.8
		c0.9,0.5,1.6,1.3,2.1,2.2h5c-0.6-2.1-2-3.9-3.8-5.1C483,30.7,480.8,30.1,478.6,30.1"/>
	<polygon class="st17" points="150.1,91.5 174.1,77.1 219.7,57.2 148.7,113.7 	"/>
	<polygon class="st18" points="155.9,95.9 148.7,113.7 219.7,57.2 	"/>
	<polygon class="st5" points="155.9,95.9 155.8,95.9 155.9,96 175.8,116.8 219.7,57.2 	"/>
	<polygon class="st5" points="219.7,57.2 128.5,77 150,91.5 150.1,91.5 	"/>
	<g>
		<g>
			<defs>
				<path id="SVGID_17_" d="M475.3,673.5h-282V178.9h66.9l7.5,6.3c2.6,2.1,6,3.3,9.4,3.2h117.9c3.6,0,7-1.3,9.7-3.6l6.8-6h63.9
					L475.3,673.5"/>
			</defs>
			<clipPath id="SVGID_18_">
				<use xlink:href="#SVGID_17_"  style="overflow:visible;"/>
			</clipPath>
		</g>
	</g>
	<rect x="266.5" y="224.2" class="st19" width="134.1" height="139.1"/>
	<rect x="258.5" y="226.6" class="st20" width="49.6" height="137.4"/>
	<rect x="308" y="226.6" class="st21" width="49.6" height="137.4"/>
	<rect x="357.6" y="226.6" class="st22" width="49.6" height="137.4"/>
	<g>
		<path class="st23" d="M411.4,178.8l-6.8,6c-2.7,2.3-6.1,3.6-9.7,3.6H277c-3.4,0-6.7-1.1-9.4-3.2l-7.5-6.3h-66.9v494.6h282l0-494.7
			H411.4z M332.8,361.3c-36.5,0-66-29.5-66-66c0-36.5,29.5-66,66-66s66,29.5,66,66C398.8,331.8,369.2,361.3,332.8,361.3z"/>
		<path d="M333.6,452.7c-0.4,0-0.8-0.4-0.8-0.8v-4c0-0.4,0.4-0.8,0.8-0.8s0.8,0.4,0.8,0.8v3.9C334.4,452.3,334,452.7,333.6,452.7
			L333.6,452.7z"/>
		<path d="M333.6,440.6c-0.4,0-0.8-0.4-0.8-0.8v-8.1c0-0.4,0.4-0.8,0.8-0.8s0.8,0.4,0.8,0.8v8.1C334.4,440.3,334,440.6,333.6,440.6z
			 M333.6,424.4c-0.4,0-0.8-0.4-0.8-0.8v-8.1c0-0.4,0.4-0.8,0.8-0.8s0.8,0.4,0.8,0.8v8.1C334.4,424.1,334,424.4,333.6,424.4
			L333.6,424.4z M333.6,408.2c-0.4,0-0.8-0.4-0.8-0.8l0,0v-8.1c0-0.4,0.4-0.8,0.8-0.8s0.8,0.4,0.8,0.8v8.1
			C334.4,407.8,334,408.2,333.6,408.2L333.6,408.2z M333.6,392c-0.4,0-0.8-0.4-0.8-0.8V383c0-0.4,0.4-0.8,0.8-0.8s0.8,0.4,0.8,0.8
			v8.1C334.4,391.6,334,392,333.6,392L333.6,392z"/>
		<path d="M333.6,375.7c-0.4,0-0.8-0.4-0.8-0.8V371c0-0.4,0.4-0.8,0.8-0.8s0.8,0.4,0.8,0.8v4C334.4,375.4,334,375.7,333.6,375.7z"/>
		<path class="st1" d="M475.3,585.5c-38.6-29-86.5-46.3-138.5-46.3c-54.3,0-104.2,18.8-143.5,50.2v84.1h282V585.5z"/>
		<path class="st5" d="M393.1,530.2c0,32.5-26.3,58.8-58.8,58.8c-24.1,0-45.7-14.7-54.6-37c-0.6-1.4-1.1-2.8-1.5-4.3
			c-0.6-1.9-1.1-3.8-1.5-5.8c-0.8-3.8-1.2-7.8-1.2-11.7c0-1.3,0-2.5,0.1-3.8c2-30,26.2-53.7,56.2-54.9c0.8,0,1.7-0.1,2.5-0.1
			c4.3,0,8.5,0.5,12.7,1.4c0.9,0.2,1.9,0.4,2.8,0.7C375.3,480.5,393.1,503.7,393.1,530.2"/>
		<path class="st15" d="M334.3,579.6c-27.2,0-49.3-22.1-49.3-49.3c0-27.3,22.1-49.3,49.3-49.3s49.3,22.1,49.3,49.3
			C383.6,557.5,361.5,579.5,334.3,579.6 M334.3,482.1c-26.6,0-48.1,21.5-48.1,48.1c0,26.6,21.5,48.1,48.1,48.1
			c26.6,0,48.1-21.5,48.1-48.1l0,0C382.4,503.7,360.8,482.1,334.3,482.1L334.3,482.1"/>
		<path class="st16" d="M333.8,504.6c-4.6,0-9.2,1.3-13.2,4c-3.8,2.6-6.5,6.4-7.9,10.8h-5.4v5.2h4.3c-0.1,1-0.1,1.8-0.1,2.4
			c0,0.5,0,1.3,0.1,2.3h-4.3v5.2h5.3c1.4,4.4,4.1,8.2,7.9,10.8c4,2.7,8.6,4.1,13.3,4.1c4.4,0,8.9-1.2,12.8-3.7
			c3.7-2.5,6.4-6.2,7.7-10.5h-10c-1,1.9-2.4,3.5-4.3,4.6c-1.8,1-3.9,1.6-6,1.6h-0.3h-0.2c-2.3,0-4.6-0.6-6.6-1.8
			c-2-1.2-3.6-2.9-4.6-5h12.1v-5.2h-13.6c-0.1-1-0.1-1.8-0.1-2.3c0-0.6,0-1.4,0.1-2.4h13.6v-5.2h-12.1c1-2.1,2.6-3.8,4.6-5
			c2-1.2,4.3-1.8,6.6-1.8h0.2c0.1,0,0.2,0,0.3,0c2.1,0,4.2,0.5,6,1.5c1.8,1.1,3.3,2.6,4.3,4.5h10c-1.3-4.2-4-7.9-7.7-10.4
			C342.7,505.9,338.2,504.6,333.8,504.6"/>
	</g>
</g>
</svg>
